<svg xmlns="http://www.w3.org/2000/svg" viewBox="0 0 232.67 114"><defs><style>.cls-1{isolation:isolate;}.cls-2,.cls-7{fill:#fe6612;}.cls-3{fill:#5e979f;}.cls-3,.cls-4,.cls-5,.cls-6,.cls-7{mix-blend-mode:multiply;}.cls-10,.cls-4{fill:#524da1;}.cls-5{fill:#fe1a0e;}.cls-6{fill:#76c13b;}.cls-8{fill:#ffcd22;}.cls-9{fill:#fff;}</style></defs><title>horizontal outlines_1</title><g class="cls-1"><g id="Layer_1" data-name="Layer 1"><polygon class="cls-2" points="76.81 48.63 47.78 48.63 62.29 4.67 76.81 48.63"/><polygon class="cls-3" points="79.71 43.02 46.05 68.43 36.37 20.6 79.71 43.02"/><polygon class="cls-4" points="84.99 55.19 57.93 44.67 86.25 11.86 84.99 55.19"/><polygon class="cls-5" points="55.66 38.88 41.62 66.32 15.74 34.29 55.66 38.88"/><polygon class="cls-4" points="60.24 38.86 62.54 79.37 10 62.03 60.24 38.86"/><polygon class="cls-6" points="84.58 77.73 55.01 39.34 114.42 24.16 84.58 77.73"/><polygon class="cls-7" points="54.41 50.91 71.09 78.61 27.03 86.28 54.41 50.91"/><polygon class="cls-3" points="80.13 74.03 74.62 43.75 116.83 51.7 80.13 74.03"/><polygon class="cls-4" points="74.99 75.77 77.83 50.48 121.75 68.26 74.99 75.77"/><path class="cls-8" d="M68.08,106.38a1.3,1.3,0,0,1-1-.46l-.3-.13a1.12,1.12,0,0,1-.6-.62L66.1,105l-.45-.42a1.12,1.12,0,0,1-.35-.81v-.5a1.12,1.12,0,0,1,.2-.64,1.33,1.33,0,0,0-.1-.51,1.94,1.94,0,0,1-.48-1,4.09,4.09,0,0,1-.79-1.79l-.23-.17a1.11,1.11,0,0,1-.3-.32l-.67-1.09a1.12,1.12,0,0,1-.17-.59,5.33,5.33,0,0,0-.43-1.69,1.13,1.13,0,0,1-.09-.36l-.1-1.44a1.14,1.14,0,0,1,0-.15,5.06,5.06,0,0,1-.6-.94,1.12,1.12,0,0,1-.12-.37,32,32,0,0,0-1.87-3.34,1.12,1.12,0,0,1-.17-.63l0-1.39V85.53a1.1,1.1,0,0,1,0-.23,1.72,1.72,0,0,1,.5-.85V84.2a1.12,1.12,0,0,1,.56-1,1.29,1.29,0,0,0,.64-1.13,1.12,1.12,0,0,1,0-.41A1.13,1.13,0,0,1,60.9,81l0-1.53-.4-.63a1.13,1.13,0,0,1-.16-.41l-.1-.6-.1-.49L60,77.18l-.37-.45-.53-.51a1.11,1.11,0,0,1-.33-.63l-1.15-1a1.12,1.12,0,0,1-.36-.69l0-.2L57,73.36a1.11,1.11,0,0,1-.12-.42l-.05-.59a1.12,1.12,0,0,1,.11-.58l.33-.68a1.12,1.12,0,0,1,.23-1.34l0,0,0-.45a1.07,1.07,0,0,1,0-.19v0l-.19-.14-.23-.19-.47.07a2.3,2.3,0,0,1-1.1.27,2.62,2.62,0,0,1-.87-.15,1.12,1.12,0,0,1-.41-.27l-.52-.54a1.12,1.12,0,0,1-.31-.72h0l-.17,0-1.25,0-.73,0-.42.15-2.69,1.12a1.12,1.12,0,0,1-1-.06l-.18-.11a10.45,10.45,0,0,0-1.48-.19l-.92.08-.41.23a1.12,1.12,0,0,1-.46.14l-.22,0h0A1.12,1.12,0,0,1,42.4,69l-.36-.1a1.12,1.12,0,0,1-.24-.1l-.17-.1-.29-.1-.21-.1-.39-.23L40.13,68a1.12,1.12,0,0,1-.38-.27l-.27-.29-1.08-.72a1.11,1.11,0,0,1-.35-.37,1.11,1.11,0,0,1-.53-.25L37,65.63l-.89-.77a1.12,1.12,0,0,1-.38-1,.63.63,0,0,0-.18-.4l-.11,0a1.12,1.12,0,0,1-.73-.55l-.18-.32-.44-.2a1.12,1.12,0,0,1-.29-.18L33,61.58a1.11,1.11,0,0,1-.33-.5,1.62,1.62,0,0,1-.49-1.3,1.48,1.48,0,0,1,.08-.36L32,58.95a1.12,1.12,0,0,1,.15-1.44l.49-.46v-.86a1.12,1.12,0,0,1,.15-.57l.11-.19.07-.32.09-.34-.11-.33a1.13,1.13,0,0,1,0-.22l-.06-.5a1.12,1.12,0,0,1,0-.43l-.16-.18a1.12,1.12,0,0,1-.27-.51l-.07-.32a1.73,1.73,0,0,1,.32-1.77l.7-1.23a1.13,1.13,0,0,1,.2-.26c.1-.09.28-.23.43-.35l.08-.36a1.11,1.11,0,0,1,.13-.33l.26-.45.27-.54a1.14,1.14,0,0,1,.12-.19l1.35-1.68a1.12,1.12,0,0,1,.32-.27l.62-.35a1.12,1.12,0,0,1,.35-.13l.82-.63a1.12,1.12,0,0,1,.42-.2c.14,0,.32-.3.39-.44l0-.07L39,42.62a1.12,1.12,0,0,1,.06-.79l.14-.29,0-.18a1.12,1.12,0,0,1,.45-.75l.9-1.43a1.12,1.12,0,0,1,.72-.5l.55-.11.31-.18.11-.08a1.12,1.12,0,0,1,.35-.73l0-.23a1.12,1.12,0,0,1,.41-.77l.36-.3a1.12,1.12,0,0,1,1-.22l.41.1a1.12,1.12,0,0,1,.56.34l.12.13,0,0,.15,0,.2,0a1.1,1.1,0,0,1,.26,0,1.12,1.12,0,0,1,.45.1h.43a1.12,1.12,0,0,1,.36.06l.52-.35.12-.07.43-.23a2,2,0,0,1,1-.39l.68,0c.3-.14.65-.29.77-.34a1.12,1.12,0,0,1,.41-.08h.34a2.91,2.91,0,0,1,.54-.34l.18-.07a4.89,4.89,0,0,1,1.28-.2,2.11,2.11,0,0,1,.87.17,1.36,1.36,0,0,1,.9-.33,2,2,0,0,1,.94.27,5.74,5.74,0,0,0,.67,0h.1a4.26,4.26,0,0,1,1.09-.53,1.12,1.12,0,0,1,1,.13l.47.31a1.16,1.16,0,0,1,.33,0,1.15,1.15,0,0,1,.66.21,1.14,1.14,0,0,1,.49.91v.35a1.11,1.11,0,0,1-.3.76L61,37a1.11,1.11,0,0,1,.17.43l.05.29A1.12,1.12,0,0,1,60.39,39l0,0,.32.12a1.12,1.12,0,0,1,.22.11,6.68,6.68,0,0,0,1.08.07h.24a2.59,2.59,0,0,1,2.15,1,1.11,1.11,0,0,1,.11.21,1.29,1.29,0,0,0,.31.41,3.21,3.21,0,0,1,1.35.43h.1a1.12,1.12,0,0,1,.75.29,1.38,1.38,0,0,1,.07-.76,1.76,1.76,0,0,1,.91-.92l.19-.06s.2-.2.32-.36a1.13,1.13,0,0,1,.59-.38,2,2,0,0,1,.5-.06,5.19,5.19,0,0,1,2.44.9l.91.08.13,0a1.48,1.48,0,0,1,.94.58l.17,0,.32.1.88,0a1.12,1.12,0,0,1,.46.12,2.53,2.53,0,0,0,1.11.34.53.53,0,0,0,.28-.06,1.12,1.12,0,0,1,.77-.4l.62,0h.78l.62.1.22.06.37.12a1.26,1.26,0,0,1,.8-.28,2,2,0,0,1,1.45.86,1.11,1.11,0,0,1,.22.49l0,.08a1.12,1.12,0,0,1,.36.83v.28a1.11,1.11,0,0,1,.1.37l0,.6a1.11,1.11,0,0,1-.26.81l-.2.23,0,.2a1.12,1.12,0,0,1-.48.81,6.87,6.87,0,0,1,.62,1.55l.56.7a1.12,1.12,0,0,1,.25.64l0,.49.91.73a1.12,1.12,0,0,1,.39.63l.12.53a3.14,3.14,0,0,1,.26,1,1.11,1.11,0,0,1,0,.35,3.12,3.12,0,0,0,.44.9,3.55,3.55,0,0,1,1.33,2.33l.5.62c.18.16.71.55,1.13.85a24.64,24.64,0,0,1,1.94,1.73l.13.15A1.69,1.69,0,0,1,91.66,61l.29.19.14,0a2,2,0,0,1,.88-.22,1.61,1.61,0,0,1,.3,0l.58-.25a1.12,1.12,0,0,1,.7-.06l.21,0,.33,0,.6-.25a1.11,1.11,0,0,1,.28-.08l.95-.13a2.35,2.35,0,0,1,.64-.09,1.64,1.64,0,0,1,1.6,1.09,1.1,1.1,0,0,1,0,.43l-.11,1.29a1.12,1.12,0,0,1-.12.42l-.37.71-.12.4a1.11,1.11,0,0,1-.2.37l-.36.45-.59.8a2.51,2.51,0,0,1-.32.65l-.26.39a4.25,4.25,0,0,1-.85,1.38,2,2,0,0,1-.42.6,1.13,1.13,0,0,1-.38.24,9.29,9.29,0,0,0-.75.69,5.58,5.58,0,0,1-1.95,1.19,32.13,32.13,0,0,0-3.79,4.13l-.09.23a1.12,1.12,0,0,1-.12.23l-.57.84a.82.82,0,0,0,0,.92A1.12,1.12,0,0,1,88,78.84a3.47,3.47,0,0,0,.23.6,1.16,1.16,0,0,1,.08.22l.12.48.34.33a1.12,1.12,0,0,1,.25.35l.16.35a1.12,1.12,0,0,1,.1.46v.45a1.11,1.11,0,0,1-.39.84,8.8,8.8,0,0,0,.24,1.45,1.13,1.13,0,0,1,0,.29v.84a1.12,1.12,0,0,1-.25.71l-.24.29a3.44,3.44,0,0,1-2.28,1.94,2.32,2.32,0,0,1-.86.44,5.53,5.53,0,0,1-1.81,1.7h0A7.33,7.33,0,0,1,84.14,94a1.12,1.12,0,0,1-.27.61,1.87,1.87,0,0,1-1.19,1.47l-.24,0-.34,0-.2.1,0,.1a1.12,1.12,0,0,1-.08.94l-.31.54a1.11,1.11,0,0,1-.2.26l0,0a4.9,4.9,0,0,1-.53,1.53,1.12,1.12,0,0,1-.58.5,5.64,5.64,0,0,0-.63.74,1.11,1.11,0,0,1-.31.3,5.05,5.05,0,0,0-.46.84,1.12,1.12,0,0,1-.37.46l-.44.32A11.91,11.91,0,0,1,75.65,105a1.11,1.11,0,0,1-.67.22h-.15a7.55,7.55,0,0,0-1.18.34,2.69,2.69,0,0,1-1,.19,2.32,2.32,0,0,1-.63-.09,1.79,1.79,0,0,1-.75.17l-.25,0a3,3,0,0,1-1.74.44h-.4A2.2,2.2,0,0,1,68.08,106.38ZM62.15,93.31Z"/><path class="cls-9" d="M58.59,35.26l.52.35a.81.81,0,0,0,.52.17,1.4,1.4,0,0,0,.41-.06v.35c-.21,0-.57,1-.57,1,.21,0,.57.55.57.55l.05.29c-.47,0-1.25,1.19-1.25,1.19l1,.89.52.2c.16.23,1.2.25,1.71.25h.27a1.45,1.45,0,0,1,1.19.54,2.75,2.75,0,0,0,.94,1.09,1.93,1.93,0,0,1,1.4.45h.46a2.09,2.09,0,0,0,.88.6c1.66-.3,1.14-1.19,1-1.54s.31-.55.31-.55a2.5,2.5,0,0,0,.93-.74l.22,0a5,5,0,0,1,2.06.87l1.2.1a.32.32,0,0,1,.26.49l.73.1.47.15,1,0a3.6,3.6,0,0,0,1.62.46A1.38,1.38,0,0,0,78.15,42l.62,0h.52l.62.1a3.25,3.25,0,0,0,1.06.25c.47,0,.4-.3.4-.3a.14.14,0,0,1,.1,0c.23,0,.57.43.57.43a1,1,0,0,0,.36.7v.59l.1.15,0,.6-.41.5-.06.54-.31.15c-.57-.1-1.09-1.44-1.09-1.44-.11-.3-.21-.39-.3-.39s-.22.19-.22.19c-.1.45,1.2,2.08,1.2,2.08v.3a5.53,5.53,0,0,1,.93,2.08l.72.9.05,1,1.3,1,.15.69a2,2,0,0,1,.21.74c-.21.69.73,1.93.73,1.93a2.41,2.41,0,0,1,1,2.13l.26.15.52.64c.26.25,1.3,1,1.3,1,.31.2,1.82,1.63,1.82,1.63.47.64-.15.74-.15.74-.1.4,1.35,1.24,1.35,1.24a.47.47,0,0,0,.23,0,2.5,2.5,0,0,0,.7-.15,1,1,0,0,1,.44-.13.31.31,0,0,1,.29.13l1-.45.42.1.67-.1.73-.3,1-.14a1.3,1.3,0,0,1,.4-.07.53.53,0,0,1,.54.32L98,62.83l-.42.8-.15.49-.36.45-.73,1a2.12,2.12,0,0,1-.21.49c-.11.15-.36.55-.36.55a2.89,2.89,0,0,1-.83,1.29.69.69,0,0,1-.2.4c-.21,0-1.14.95-1.14.95a5,5,0,0,1-1.56.94c-.88.3-4.36,4.61-4.36,4.61l-.15.4-.57.84A2,2,0,0,0,87,78.3c-.47.29.2,1.64.2,1.64l.2.79.57.55.16.35v.45h-.21c-.41.64.1,2.58.1,2.58v.84l-.36.45a2.44,2.44,0,0,1-1.86,1.49,1.41,1.41,0,0,1-1,.45,3.88,3.88,0,0,1-1.6,1.73c-.26,0-.94.74-.94.74,1.09,1.09.83,3.52.83,3.52l-.21.1c0,.89-.47,1-.47,1l-.57,0-1,.55c-.83.79.15,1.14.15,1.14l-.31.54-.36.35a3.33,3.33,0,0,1-.42,1.49c-.37,0-1.14,1.14-1.14,1.14-.36.15-.88,1.34-.88,1.34l-.62.45a11.24,11.24,0,0,1-2.18,2h-.12a7.27,7.27,0,0,0-1.59.41,1.62,1.62,0,0,1-.6.12,1.06,1.06,0,0,1-.74-.27.84.84,0,0,1-.64.36H71.2a.56.56,0,0,0-.48-.2h-.09c0,.53-.78.63-1.33.63a4.93,4.93,0,0,1-.59,0,1.59,1.59,0,0,1-.63.2c-.25,0-.2-.2-.2-.2l-.68-.29-.15-.39-.63-.6v-.5l.16-.05a2.39,2.39,0,0,0-.31-1.83c-.27-.15-.27-.79-.27-.79a3.07,3.07,0,0,1-.82-1.93l-.62-.45-.67-1.09A6.57,6.57,0,0,0,63.36,95l-.1-1.44c.05-.74-.21-.74-.21-.74a3.89,3.89,0,0,1-.52-.79,25.87,25.87,0,0,0-2-3.77l0-1.39V85.53c.05-.25.52-.55.52-.55V84.2A2.44,2.44,0,0,0,62.27,82,.75.75,0,0,0,62,80.92L62,79.09l-.57-.89-.1-.6-.11-.49.16-.2-.1-.2-.42-.25-.41-.5-.57-.55,0-.29-1.56-1.39-.05-.39-.26-.5L58,72.25l.31-.64.31-.69-.31-.35.37-.34,0-.9c.15-.24-.16-1-.16-1L58.07,68l-.36-.29-.42-.15-1,.15a1.15,1.15,0,0,1-.7.22,1.53,1.53,0,0,1-.48-.08l-.52-.54c0-1-1.19-1.09-1.19-1.09l-1.3,0-1,0-.57.2-2.75,1.14-.26-.15a9.73,9.73,0,0,0-2-.3l-1.25.1-.62.35-.67,0-.32.35-.36-.1-.26-.14-.38-.13-.45-.27-.67-.3-.36-.4L39,65.8l-.31-.6-.46.06-.58-.49L36.8,64a1.92,1.92,0,0,0-.73-1.54l-.42-.1-.36-.65-.78-.35-.73-.64,0-.25c-.88-.65-.06-1-.06-1l-.78-1.14.63-.59.21-.2V56.19l.2-.35.1-.5.16-.59L34,54.1l-.06-.5.26-.1v-.4l-.67-.74-.11-.5c-.21-.2.21-.75.21-.75l.73-1.29c.15-.14.57-.44.57-.44l.15-.35.11-.49.26-.45.31-.6,1.35-1.68.62-.35.26,0,1-.79a2,2,0,0,0,1.2-1.19l.11-.45-.21-.69.21-.45,0-.35.16-.1,1-1.64.73-.15.52-.3.62-.45v-.49l.31-.25.06-.7.36-.3.41.1.26.29.21.1.31.24.32,0L46,37.7l.2,0,.16.1h.73l.31.2.26,0,.93-.64.57-.3c.1-.15.46-.2.46-.2l.84-.05a9.37,9.37,0,0,1,.88-.4h.78a1.93,1.93,0,0,1,.58-.45,3.83,3.83,0,0,1,1-.16c.62,0,.62.31.62.31h.78l.16-.35a.21.21,0,0,1,.21-.13,1.27,1.27,0,0,1,.56.23,7.64,7.64,0,0,0,1,.09,1.18,1.18,0,0,0,.61-.09,2.86,2.86,0,0,1,.93-.5m0-2.23a2.23,2.23,0,0,0-.72.12,5.83,5.83,0,0,0-1,.46H56.7a3,3,0,0,0-1.27-.3,2.5,2.5,0,0,0-1.06.23,3.53,3.53,0,0,0-.71-.07,6,6,0,0,0-1.58.24,2.24,2.24,0,0,0-.36.13,3.69,3.69,0,0,0-.42.24,2.23,2.23,0,0,0-.8.16l-.64.27-.39,0h-.15a3.14,3.14,0,0,0-1.44.55l-.34.18-.23.14-.15.1h-.33a2.23,2.23,0,0,0-.65-.1l-.31,0a2.23,2.23,0,0,0-.75-.35l-.41-.1a2.23,2.23,0,0,0-2,.44l-.36.3a2.23,2.23,0,0,0-.8,1.42,2.24,2.24,0,0,0-.22.4l-.26.05a2.23,2.23,0,0,0-1.44,1l-.81,1.28a2.23,2.23,0,0,0-.71,1.34v0l-.07.14a2.23,2.23,0,0,0-.17,1.33l-.25.17-.65.49a2.23,2.23,0,0,0-.39.17l-.62.35a2.23,2.23,0,0,0-.64.55L34,46.11a2.24,2.24,0,0,0-.25.38l-.28.54-.23.39A2.23,2.23,0,0,0,33,48l-.19.17a2.23,2.23,0,0,0-.4.52l-.67,1.19a2.85,2.85,0,0,0-.45,2.69l.05.24a2.23,2.23,0,0,0,.36.81q0,.09,0,.19l.06.5a2.23,2.23,0,0,0,.09.44v0l0,.08,0,.14,0,0a2.23,2.23,0,0,0-.31,1.13v.38l-.14.13a2.23,2.23,0,0,0-.31,2.88l.05.08v0a2.7,2.7,0,0,0,.64,2,2.23,2.23,0,0,0,.55.75l.73.64a2.23,2.23,0,0,0,.57.37l.1,0a2.23,2.23,0,0,0,.89.87,2.23,2.23,0,0,0,.74,1.35l.87.76.6.51a2.23,2.23,0,0,0,.59.36,2.23,2.23,0,0,0,.4.33l1,.64.17.19a2.23,2.23,0,0,0,.75.54l.55.24.33.2a2.23,2.23,0,0,0,.41.19l.2.07.09,0a2.23,2.23,0,0,0,.48.2l.36.1A2.23,2.23,0,0,0,44,69.75a2.23,2.23,0,0,0,.77-.26l.2-.11.59,0c.4,0,.84.08,1.07.12l0,0a2.23,2.23,0,0,0,2,.13l2.69-1.12.2-.07.57,0,.54,0a2.23,2.23,0,0,0,.33.43l.52.54a2.23,2.23,0,0,0,.83.54,3.74,3.74,0,0,0,1.26.22,3.6,3.6,0,0,0,.49,0,2.24,2.24,0,0,0,0,.89l-.13.27a2.23,2.23,0,0,0-.21,1.16l.05.59a2.23,2.23,0,0,0,.24.84l.08.15h0a2.23,2.23,0,0,0,.73,1.37l.91.81a2.23,2.23,0,0,0,.54.82l.48.46.28.34,0,.19.1.55a2.23,2.23,0,0,0,.32.82l.24.37,0,1.22a2.23,2.23,0,0,0,.23.93,1.82,1.82,0,0,0,0,.22c0,.09-.05.12-.07.13A2.23,2.23,0,0,0,58.85,84a2.66,2.66,0,0,0-.48,1,2.23,2.23,0,0,0,0,.46v1.29l0,1.35a2.23,2.23,0,0,0,.33,1.25c.69,1.12,1.52,2.56,1.74,3.06a2.23,2.23,0,0,0,.21.57,7.91,7.91,0,0,0,.49.82l.09,1.27a2.23,2.23,0,0,0,.18.73,4.35,4.35,0,0,1,.33,1.24A2.23,2.23,0,0,0,62,98.31l.67,1.09a2.23,2.23,0,0,0,.49.56,5.12,5.12,0,0,0,.74,1.6,3.06,3.06,0,0,0,.43,1,2.23,2.23,0,0,0-.12.73v.5a2.23,2.23,0,0,0,.69,1.62l.27.25a2.23,2.23,0,0,0,1.16,1.17l.1,0a2.45,2.45,0,0,0,1.67.64,3.1,3.1,0,0,0,1-.17h.23a4.43,4.43,0,0,0,2-.42,2.83,2.83,0,0,0,.83-.13,3.51,3.51,0,0,0,.55,0,3.84,3.84,0,0,0,1.39-.27,8.54,8.54,0,0,1,.83-.26H75a2.23,2.23,0,0,0,1.34-.45,13,13,0,0,0,2.48-2.24l.29-.21a2.23,2.23,0,0,0,.75-.93,5.47,5.47,0,0,1,.26-.51,2.23,2.23,0,0,0,.4-.43c.11-.15.26-.34.37-.46a2.23,2.23,0,0,0,.91-.89,6.14,6.14,0,0,0,.59-1.55,2.24,2.24,0,0,0,.18-.27l.31-.54a2.23,2.23,0,0,0,.26-.74,3,3,0,0,0,1.8-2,2.23,2.23,0,0,0,.34-1A8.92,8.92,0,0,0,85,91a6.37,6.37,0,0,0,1.2-1.22,3.45,3.45,0,0,0,.65-.36,4.49,4.49,0,0,0,2.74-2.38l.14-.17a2.23,2.23,0,0,0,.5-1.41v-.84a2.24,2.24,0,0,0-.08-.57,7,7,0,0,1-.16-.82,2.22,2.22,0,0,0,.34-1.18v-.45a2.23,2.23,0,0,0-.2-.92L90,80.35a2.23,2.23,0,0,0-.5-.7l-.11-.11,0-.17a2.23,2.23,0,0,0-.17-.44l0-.08a2.23,2.23,0,0,0-.27-1.73l.47-.69a2.23,2.23,0,0,0,.24-.46l0-.06A37.08,37.08,0,0,1,93,72.19a6.56,6.56,0,0,0,2.23-1.43c.17-.17.37-.36.5-.47a2.23,2.23,0,0,0,.56-.4,3.09,3.09,0,0,0,.58-.78,5.4,5.4,0,0,0,.9-1.49l.18-.27a3.24,3.24,0,0,0,.4-.75l.49-.67.33-.41a2.23,2.23,0,0,0,.39-.74l.09-.3.32-.62a2.23,2.23,0,0,0,.25-.85l.11-1.29a2.23,2.23,0,0,0-.1-.87A2.75,2.75,0,0,0,97.54,59a3.43,3.43,0,0,0-.86.11l-.88.12a2.23,2.23,0,0,0-.55.15l-.45.19a2.23,2.23,0,0,0-1.39.12l-.31.13H93l-.31,0a3.23,3.23,0,0,0-.45-.85,2.24,2.24,0,0,0-.27-.3,19.62,19.62,0,0,0-2.1-1.86c-.37-.26-.76-.55-.95-.71l-.24-.29a4.64,4.64,0,0,0-1.54-2.62L87,52.94a2.24,2.24,0,0,0,0-.33,4.28,4.28,0,0,0-.31-1.3l-.09-.41a2.23,2.23,0,0,0-.79-1.27l-.52-.41a2.23,2.23,0,0,0-.49-1.28l-.42-.52a8.08,8.08,0,0,0-.31-.86,2.23,2.23,0,0,0,.25-.72,2.23,2.23,0,0,0,.5-1.6l0-.6a2.23,2.23,0,0,0-.09-.48V43.1a2.23,2.23,0,0,0-.47-1.37A2.23,2.23,0,0,0,83.8,41a3,3,0,0,0-2.32-1.28,2.38,2.38,0,0,0-.92.18l-.3-.07-.62-.1-.34,0h-.7l-.62,0a2.23,2.23,0,0,0-1.13.42,2.63,2.63,0,0,1-.43-.18,2.23,2.23,0,0,0-.91-.24l-.74,0-.08,0A2.68,2.68,0,0,0,73.36,39l-.25,0-.65-.06a5.9,5.9,0,0,0-2.8-.92,3.12,3.12,0,0,0-.78.1,2.23,2.23,0,0,0-1.18.76l-.09.1h0a2.92,2.92,0,0,0-1.34,1.19,4.34,4.34,0,0,0-.76-.23l-.12-.2a3.67,3.67,0,0,0-3-1.53h0a2.23,2.23,0,0,0,0-.68l-.05-.29a2.23,2.23,0,0,0-.1-.39,2.23,2.23,0,0,0,.14-.77v-.35A2.23,2.23,0,0,0,60,33.48h-.11l-.11-.08A2.23,2.23,0,0,0,58.59,33ZM94.72,70.51h0Zm-5.9,6.7h0Z"/><path class="cls-8" d="M92.93,96.65a5.63,5.63,0,0,1-1.2-.14A2.66,2.66,0,0,1,89.79,94a1.1,1.1,0,0,1,0-.13,4.66,4.66,0,0,0-.32-1.37,1.12,1.12,0,0,1,.07-1l1-1.74a1.12,1.12,0,0,1-.08-.66.69.69,0,0,0-.09-.44c-.6-.83,0-2,.22-2.47l.1-.14c.12-.15.48-.6,1.87-.85a4,4,0,0,1,.83-.5l.1,0,.11-.1v-.15a1.19,1.19,0,0,1,0-.14,1.39,1.39,0,0,1,1-1.18l.2-.18.12-.35a1.12,1.12,0,0,1,1-.73l.2,0a1.12,1.12,0,0,1,.73.48l.22.13a1.12,1.12,0,0,1,.56.79l.44,2.55a1.12,1.12,0,0,1-.41,1.07,5.46,5.46,0,0,0-.38.73,2.82,2.82,0,0,1-.2.72l0,1.15a1.12,1.12,0,0,1-.22.7l-.4.54L96.5,91l0,.24a1.12,1.12,0,0,1-.37.67,3.55,3.55,0,0,0-.15.58,6.42,6.42,0,0,1-.62,2.42,1.86,1.86,0,0,1-1,1.46,3,3,0,0,1-1.4.31Z"/><path class="cls-9" d="M96,83c0,.16.61.5.61.5L97,86c-.31.17-.79,1.33-.79,1.33a1.72,1.72,0,0,1-.22.75l0,1.42-.53.71-.13.5,0,.3c-.35.16-.53,1.29-.53,1.29a6.06,6.06,0,0,1-.61,2.3c0,.73-.68.9-1.29.9a4.54,4.54,0,0,1-.94-.11c-1-.21-1.09-1.5-1.09-1.5a5.76,5.76,0,0,0-.4-1.84l1-1.67a.72.72,0,0,0,.09-1.08,1.79,1.79,0,0,0-.26-1.26c-.27-.37.26-1.29.26-1.29.27-.33,1.58-.5,1.58-.5,0-.25.79-.54.91-.63s.66-.58.66-.58v-.63a.31.31,0,0,1,.35-.27.75.75,0,0,1,.17,0,.8.8,0,0,1,.53-.5A5,5,0,0,1,96,83m0-2.23a2.23,2.23,0,0,0-2.09,1.45,2.51,2.51,0,0,0-1.35,1.72,4.7,4.7,0,0,0-.44.27,3.48,3.48,0,0,0-2.28,1.2,2.24,2.24,0,0,0-.19.28,3.48,3.48,0,0,0-.29,3.47,2.23,2.23,0,0,0,0,.49L88.56,91a2.23,2.23,0,0,0-.14,1.92,4.27,4.27,0,0,1,.25.94,1.65,1.65,0,0,0,0,.23,3.75,3.75,0,0,0,2.84,3.55,6.79,6.79,0,0,0,1.42.16,3.23,3.23,0,0,0,3.47-2.55A7.48,7.48,0,0,0,97,92.61l0-.15a2.23,2.23,0,0,0,.48-1.09l0-.15.26-.36a2.23,2.23,0,0,0,.44-1.4l0-.92a3.85,3.85,0,0,0,.15-.59l.16-.32a2.23,2.23,0,0,0,.65-2l-.44-2.55A2.93,2.93,0,0,0,96,80.75Z"/><path d="M133.26,36.74h1.14L138.76,47h-1.42l-1-2.52h-5.13L130.11,47h-1.38Zm.55,1.56h0l-2.13,5h4.18Z"/><path d="M140.55,36.74h6.36v1.13h-5.14v3.39h4.78v1.13h-4.78V47h-1.22Z"/><path d="M149,36.74h2.62a12.56,12.56,0,0,1,1.47.09,4,4,0,0,1,1.31.38,2.37,2.37,0,0,1,.94.85,2.75,2.75,0,0,1,.36,1.51,2.5,2.5,0,0,1-.68,1.82,3.26,3.26,0,0,1-1.88.88L156.09,47H154.6l-2.78-4.61h-1.56V47H149Zm1.22,4.52h1.09l1,0a3.6,3.6,0,0,0,1-.19,1.74,1.74,0,0,0,.75-.5,1.44,1.44,0,0,0,.3-1,1.59,1.59,0,0,0-.22-.88,1.48,1.48,0,0,0-.57-.51,2.44,2.44,0,0,0-.8-.24,6.85,6.85,0,0,0-.89-.06h-1.71Z"/><path d="M158.32,36.74h1.22V47h-1.22Z"/><path d="M169.7,38.85a2.93,2.93,0,0,0-1.14-.93,3.38,3.38,0,0,0-1.42-.31,3.56,3.56,0,0,0-1.57.35,3.92,3.92,0,0,0-1.24.93,4.28,4.28,0,0,0-.81,1.36,4.56,4.56,0,0,0-.29,1.61,4.72,4.72,0,0,0,.29,1.67,4.15,4.15,0,0,0,.8,1.35,3.77,3.77,0,0,0,1.23.91,4,4,0,0,0,3.26,0,3.82,3.82,0,0,0,1.29-1.06l.91.77a4.22,4.22,0,0,1-1.67,1.36,5.38,5.38,0,0,1-2.21.43,5.2,5.2,0,0,1-2.06-.41,5,5,0,0,1-1.66-1.12,5.17,5.17,0,0,1-1.1-1.7,6,6,0,0,1,0-4.27,5.09,5.09,0,0,1,4.83-3.27,5.46,5.46,0,0,1,2,.38,3.69,3.69,0,0,1,1.61,1.23Z"/><path d="M176.48,36.74h1.14L182,47h-1.42l-1-2.52h-5.13L173.33,47H172ZM177,38.3h0l-2.13,5h4.18Z"/><path d="M129.93,52.91h1.22V63.16h-1.22Z"/><path d="M134.12,52.91h1.54l5.94,8.51h0V52.91h1.22V63.16h-1.54l-5.94-8.51h0v8.51h-1.22Z"/><path d="M144.42,52.91h1.38L149,61.34h0l3.26-8.43h1.29l-4,10.25h-1.17Z"/><path d="M155.11,52.91h6.44V54h-5.23v3.21h4.88v1.13h-4.88V62h5.49v1.13h-6.7Z"/><path d="M169,54.72a1.8,1.8,0,0,0-.81-.72,2.59,2.59,0,0,0-1.06-.22,3.17,3.17,0,0,0-.8.1,2.35,2.35,0,0,0-.7.3,1.51,1.51,0,0,0-.5.54,1.56,1.56,0,0,0-.19.78,1.63,1.63,0,0,0,.11.61,1.31,1.31,0,0,0,.35.49,2.66,2.66,0,0,0,.67.41,9.2,9.2,0,0,0,1,.38q.59.19,1.15.41a3.9,3.9,0,0,1,1,.55,2.43,2.43,0,0,1,.68.83,3.14,3.14,0,0,1-.05,2.58,2.78,2.78,0,0,1-.8.93,3.48,3.48,0,0,1-1.15.55,5,5,0,0,1-1.35.18,5.19,5.19,0,0,1-.9-.08,4.36,4.36,0,0,1-.86-.25,3.47,3.47,0,0,1-.77-.43,2.57,2.57,0,0,1-.62-.66l1-.85a2.15,2.15,0,0,0,.93.85,2.83,2.83,0,0,0,2,.17,2.39,2.39,0,0,0,.72-.34,1.86,1.86,0,0,0,.52-.56,1.44,1.44,0,0,0,.2-.77,1.64,1.64,0,0,0-.16-.77,1.42,1.42,0,0,0-.49-.51,3.82,3.82,0,0,0-.84-.39l-1.19-.41a7.64,7.64,0,0,1-1-.4,3.11,3.11,0,0,1-.8-.55,2.34,2.34,0,0,1-.54-.78,3.07,3.07,0,0,1,.09-2.38,2.71,2.71,0,0,1,.78-.92,3.56,3.56,0,0,1,1.11-.56,4.73,4.73,0,0,1,2.89.08,3.11,3.11,0,0,1,1.28.93Z"/><path d="M179.49,54H176.1v9.12h-1.22V54H171.5V52.91h8Z"/><path d="M181.36,52.91h1.81l3.48,8h0l3.5-8h1.77V63.16h-1.22v-8.6h0L187,63.16h-.74l-3.68-8.6h0v8.6h-1.22Z"/><path d="M194.92,52.91h6.44V54h-5.23v3.21H201v1.13h-4.88V62h5.49v1.13h-6.7Z"/><path d="M203.94,52.91h1.54l5.94,8.51h0V52.91h1.22V63.16h-1.54l-5.94-8.51h0v8.51h-1.22Z"/><path d="M222.52,54h-3.39v9.12h-1.22V54h-3.39V52.91h8Z"/><path class="cls-2" d="M130.13,69.07h5.61a9.9,9.9,0,0,1,2.1.21,5,5,0,0,1,1.74.72,3.59,3.59,0,0,1,1.19,1.35,4.59,4.59,0,0,1,.44,2.12,4.25,4.25,0,0,1-.8,2.61,3.6,3.6,0,0,1-2.33,1.36l3.68,6.12h-3.83l-3-5.79h-1.58v5.79h-3.19Zm3.19,6h1.88l.91,0a2.85,2.85,0,0,0,.87-.18,1.5,1.5,0,0,0,.64-.48,1.46,1.46,0,0,0,.26-.92,1.53,1.53,0,0,0-.23-.88,1.51,1.51,0,0,0-.57-.5,2.54,2.54,0,0,0-.8-.24,6.56,6.56,0,0,0-.88-.06h-2.09Z"/><path class="cls-2" d="M144,69.07h3.19v14.5H144Z"/><path class="cls-2" d="M157.85,72.61a2.28,2.28,0,0,0-1.05-.73,3.78,3.78,0,0,0-1.26-.24,3.31,3.31,0,0,0-.72.08,2.79,2.79,0,0,0-.7.26,1.52,1.52,0,0,0-.53.46,1.17,1.17,0,0,0-.2.7,1.15,1.15,0,0,0,.49,1,4.62,4.62,0,0,0,1.24.59q.75.25,1.61.49a6.59,6.59,0,0,1,1.61.7,3.8,3.8,0,0,1,1.24,1.21,3.68,3.68,0,0,1,.49,2,4.67,4.67,0,0,1-.45,2.11,4.27,4.27,0,0,1-1.22,1.49,5.16,5.16,0,0,1-1.78.88,8.17,8.17,0,0,1-4.76-.14,6.56,6.56,0,0,1-2.25-1.39l2.27-2.5a3.31,3.31,0,0,0,1.24,1,3.49,3.49,0,0,0,2.33.27,2.56,2.56,0,0,0,.72-.28,1.54,1.54,0,0,0,.51-.47,1.17,1.17,0,0,0,.19-.68,1.23,1.23,0,0,0-.5-1,4.65,4.65,0,0,0-1.26-.64q-.76-.27-1.64-.53a7.33,7.33,0,0,1-1.64-.72,3.93,3.93,0,0,1-1.26-1.19,3.39,3.39,0,0,1-.5-1.95,4.35,4.35,0,0,1,.46-2,4.45,4.45,0,0,1,1.23-1.47,5.34,5.34,0,0,1,1.77-.89,7.25,7.25,0,0,1,2.07-.3A8.13,8.13,0,0,1,158,69,5.48,5.48,0,0,1,160,70.21Z"/><path class="cls-2" d="M163,69.07h3.19v14.5H163Z"/><path class="cls-2" d="M169.72,69.07h4.34l6.16,10.07h0V69.07h3.19v14.5h-4.18L173,73.24h0V83.56h-3.19Z"/><path class="cls-2" d="M200.15,82.54a11.57,11.57,0,0,1-2.95,1.06,15,15,0,0,1-3.13.33,9,9,0,0,1-3.13-.53,7.17,7.17,0,0,1-2.48-1.53,6.9,6.9,0,0,1-1.63-2.41,8.8,8.8,0,0,1,0-6.31,6.92,6.92,0,0,1,1.63-2.41,7.2,7.2,0,0,1,2.48-1.53,8.93,8.93,0,0,1,3.13-.53,11.6,11.6,0,0,1,3.2.42,6.28,6.28,0,0,1,2.57,1.44L197.59,73a4.5,4.5,0,0,0-1.47-1,5.25,5.25,0,0,0-2-.35,4.73,4.73,0,0,0-1.85.35,4.15,4.15,0,0,0-1.42,1,4.26,4.26,0,0,0-.91,1.48,5.66,5.66,0,0,0,0,3.74,4.28,4.28,0,0,0,.91,1.47,4.14,4.14,0,0,0,1.42,1,4.73,4.73,0,0,0,1.85.35,6.1,6.1,0,0,0,1.8-.24,6.79,6.79,0,0,0,1.21-.48V77.91h-2.6V75h5.67Z"/><polygon class="cls-10" points="217.04 107.24 88.81 107.24 94.88 99.11 88.81 91.05 217.04 91.05 223.11 99.11 217.04 107.24"/><path class="cls-9" d="M106.33,95.2h3.05a5.2,5.2,0,0,1,1.12.12,2.33,2.33,0,0,1,.89.39,1.62,1.62,0,0,1,.55.73A2.3,2.3,0,0,1,112,97.6a2.69,2.69,0,0,1-.63,1.42,2.31,2.31,0,0,1-1.37.74l1.54,3.33h-2.08l-1.21-3.15h-.86l-.43,3.15h-1.74Zm1.28,3.26h1l.5,0a1.71,1.71,0,0,0,.48-.1,1,1,0,0,0,.39-.26.89.89,0,0,0,.21-.5.75.75,0,0,0-.06-.48.68.68,0,0,0-.28-.27,1.26,1.26,0,0,0-.42-.13,3.35,3.35,0,0,0-.47,0h-1.14Z"/><path class="cls-9" d="M112.9,99.15a4.88,4.88,0,0,1,.56-1.71A4.58,4.58,0,0,1,116,95.29a5.24,5.24,0,0,1,1.75-.29,4.5,4.5,0,0,1,1.66.29,3.23,3.23,0,0,1,1.22.83,3.17,3.17,0,0,1,.7,1.31,4.22,4.22,0,0,1,.08,1.71,5,5,0,0,1-.56,1.71,4.55,4.55,0,0,1-1.07,1.31,4.71,4.71,0,0,1-1.46.83,5.2,5.2,0,0,1-1.74.29,4.54,4.54,0,0,1-1.66-.29,3.2,3.2,0,0,1-1.23-.83,3.16,3.16,0,0,1-.7-1.31A4.2,4.2,0,0,1,112.9,99.15Zm1.8,0a2.72,2.72,0,0,0,0,1,2,2,0,0,0,.38.8,1.83,1.83,0,0,0,.7.53,2.37,2.37,0,0,0,1,.19,2.79,2.79,0,0,0,1-.19,2.69,2.69,0,0,0,.85-.53,2.9,2.9,0,0,0,.61-.8,3.16,3.16,0,0,0,.32-1,2.78,2.78,0,0,0,0-1,1.92,1.92,0,0,0-.38-.81,1.89,1.89,0,0,0-.7-.53,2.37,2.37,0,0,0-1-.19,2.78,2.78,0,0,0-1,.19,2.7,2.7,0,0,0-.85.53,2.87,2.87,0,0,0-.61.81A3.19,3.19,0,0,0,114.7,99.15Z"/><path class="cls-9" d="M126.07,95.2h1.44l2.33,7.88h-2l-.45-1.67h-3.06l-.89,1.67h-1.92Zm.35,2.29-1.3,2.45H127Z"/><path class="cls-9" d="M132.06,95.2h2.61a7.07,7.07,0,0,1,1.76.21,3.56,3.56,0,0,1,1.39.68,2.7,2.7,0,0,1,.83,1.23,4,4,0,0,1,.12,1.84,4.2,4.2,0,0,1-.6,1.69,4.45,4.45,0,0,1-1.14,1.22,5.07,5.07,0,0,1-1.52.75,5.86,5.86,0,0,1-1.72.26H131Zm.86,6.28h.9a5.05,5.05,0,0,0,1.14-.12,2.78,2.78,0,0,0,1-.41,2.36,2.36,0,0,0,.7-.75,3.05,3.05,0,0,0,.38-1.13,2.16,2.16,0,0,0-.07-1,1.59,1.59,0,0,0-.48-.71,2.23,2.23,0,0,0-.81-.42,3.59,3.59,0,0,0-1-.14h-1Z"/><path class="cls-9" d="M144.47,97.13a1,1,0,0,0-.52-.4,1.81,1.81,0,0,0-1.07-.08,1.59,1.59,0,0,0-.4.14,1,1,0,0,0-.32.25.73.73,0,0,0-.17.38.59.59,0,0,0,.09.44,1,1,0,0,0,.37.29,3.28,3.28,0,0,0,.56.21l.64.2a5,5,0,0,1,.63.27,1.87,1.87,0,0,1,.53.4,1.47,1.47,0,0,1,.33.6,2,2,0,0,1,0,.87,2.77,2.77,0,0,1-.41,1.15,2.91,2.91,0,0,1-.78.81,3.29,3.29,0,0,1-1,.48,4.5,4.5,0,0,1-1.19.16,3.93,3.93,0,0,1-1.39-.23,3,3,0,0,1-1.12-.76l1.44-1.36a1.53,1.53,0,0,0,.6.55,1.72,1.72,0,0,0,.81.19,2,2,0,0,0,.43-.05,1.65,1.65,0,0,0,.41-.15,1,1,0,0,0,.32-.26.75.75,0,0,0,.16-.37.57.57,0,0,0-.19-.56,2.23,2.23,0,0,0-.64-.35l-.85-.29a3.43,3.43,0,0,1-.84-.39,1.75,1.75,0,0,1-.6-.65,1.72,1.72,0,0,1-.13-1.06,2.65,2.65,0,0,1,.41-1.11,2.93,2.93,0,0,1,.78-.8,3.48,3.48,0,0,1,1-.48,4.22,4.22,0,0,1,2.41,0,2.46,2.46,0,0,1,1,.63Z"/><path class="cls-9" d="M147.57,95.2h1.74l-.41,2.94h3.37l.41-2.94h1.74l-1.1,7.88h-1.74l.48-3.41h-3.37l-.48,3.41h-1.74Z"/><path class="cls-9" d="M155.37,99.15a4.88,4.88,0,0,1,.56-1.71,4.58,4.58,0,0,1,2.53-2.14,5.24,5.24,0,0,1,1.75-.29,4.5,4.5,0,0,1,1.66.29,3.23,3.23,0,0,1,1.22.83,3.17,3.17,0,0,1,.7,1.31,4.22,4.22,0,0,1,.08,1.71,5,5,0,0,1-.56,1.71,4.55,4.55,0,0,1-1.07,1.31,4.71,4.71,0,0,1-1.46.83,5.2,5.2,0,0,1-1.74.29,4.54,4.54,0,0,1-1.66-.29,3.2,3.2,0,0,1-1.23-.83,3.16,3.16,0,0,1-.7-1.31A4.2,4.2,0,0,1,155.37,99.15Zm1.8,0a2.72,2.72,0,0,0,0,1,2,2,0,0,0,.38.8,1.83,1.83,0,0,0,.7.53,2.37,2.37,0,0,0,1,.19,2.79,2.79,0,0,0,1-.19,2.69,2.69,0,0,0,.85-.53,2.9,2.9,0,0,0,.61-.8,3.16,3.16,0,0,0,.32-1,2.78,2.78,0,0,0,0-1,1.92,1.92,0,0,0-.38-.81,1.89,1.89,0,0,0-.7-.53,2.37,2.37,0,0,0-1-.19,2.78,2.78,0,0,0-1,.19,2.7,2.7,0,0,0-.85.53,2.87,2.87,0,0,0-.61.81A3.19,3.19,0,0,0,157.18,99.15Z"/><path class="cls-9" d="M165.13,95.2H167l.55,5.05h0l2.36-5.05h1.61l.91,5.19h0l2-5.19h1.76l-3.41,7.88h-1.55l-1-5.46h0l-2.49,5.46h-1.49Z"/><path class="cls-9" d="M179.93,101.32l3.45-2.75.27-.23a2.24,2.24,0,0,0,.26-.25,1.76,1.76,0,0,0,.21-.29.89.89,0,0,0,.11-.33.67.67,0,0,0-.2-.63.93.93,0,0,0-.65-.23,1.06,1.06,0,0,0-.77.29,1.35,1.35,0,0,0-.39.71l-1.66-.12a3.06,3.06,0,0,1,.41-1.06,2.82,2.82,0,0,1,.7-.75,2.88,2.88,0,0,1,.92-.45,3.93,3.93,0,0,1,1.1-.15,3.06,3.06,0,0,1,1,.15,1.92,1.92,0,0,1,.75.45,1.7,1.7,0,0,1,.43.74,2.46,2.46,0,0,1,.06,1,2.74,2.74,0,0,1-.47,1.24,4.29,4.29,0,0,1-.87.87l-2.68,2.06h3.5l-.2,1.47h-5.5Z"/><path class="cls-9" d="M187,99.15a8.57,8.57,0,0,1,.33-1.43,4.93,4.93,0,0,1,.65-1.31,3.36,3.36,0,0,1,1-1,2.85,2.85,0,0,1,1.5-.37,2.32,2.32,0,0,1,1.39.37,2.23,2.23,0,0,1,.76,1,3.78,3.78,0,0,1,.27,1.31,7.9,7.9,0,0,1-.07,1.43,8.92,8.92,0,0,1-.33,1.42,4.77,4.77,0,0,1-.64,1.31,3.35,3.35,0,0,1-1,1,2.85,2.85,0,0,1-1.5.37,2.32,2.32,0,0,1-1.39-.37,2.26,2.26,0,0,1-.76-1,3.68,3.68,0,0,1-.28-1.31A7.89,7.89,0,0,1,187,99.15Zm1.67,0q0,.31-.08.75a3.46,3.46,0,0,0,0,.84,1.51,1.51,0,0,0,.28.68.78.78,0,0,0,.67.28,1,1,0,0,0,.74-.28,2.09,2.09,0,0,0,.47-.68,4.05,4.05,0,0,0,.27-.84q.09-.43.13-.75c0-.21.06-.46.08-.75a3.46,3.46,0,0,0,0-.84,1.48,1.48,0,0,0-.28-.68.79.79,0,0,0-.66-.28,1,1,0,0,0-.75.28,2.13,2.13,0,0,0-.47.68,4,4,0,0,0-.27.84C188.73,98.69,188.68,98.94,188.65,99.15Z"/><path class="cls-9" d="M197,97.07l-1.77,1.39-.79-1.09,2.87-2.17h1.56l-1.1,7.88h-1.6Z"/><path class="cls-9" d="M201.39,97.24a2.31,2.31,0,0,1,.34-1,2.43,2.43,0,0,1,.67-.68,2.93,2.93,0,0,1,.9-.41,4,4,0,0,1,1-.13,3.62,3.62,0,0,1,1,.13,2,2,0,0,1,.78.41,1.62,1.62,0,0,1,.47.68,1.94,1.94,0,0,1,.07,1,2,2,0,0,1-.5,1.1,2.24,2.24,0,0,1-1.08.65v0a1.61,1.61,0,0,1,1,.68,1.82,1.82,0,0,1,.21,1.23,2.36,2.36,0,0,1-.37,1,2.59,2.59,0,0,1-.71.72,3.23,3.23,0,0,1-.95.43,4,4,0,0,1-1.07.14,3.6,3.6,0,0,1-1-.14,2.29,2.29,0,0,1-.82-.43,1.73,1.73,0,0,1-.51-.72,2,2,0,0,1-.09-1,2.22,2.22,0,0,1,.55-1.23,2.35,2.35,0,0,1,1.19-.68v0a1.54,1.54,0,0,1-.9-.65A1.61,1.61,0,0,1,201.39,97.24Zm1.06,3.45a.84.84,0,0,0,.2.7,1,1,0,0,0,.76.29,1.28,1.28,0,0,0,.84-.29,1.08,1.08,0,0,0,.41-.7.85.85,0,0,0-.21-.71,1,1,0,0,0-.76-.29,1.25,1.25,0,0,0-.84.29A1.1,1.1,0,0,0,202.45,100.69Zm.58-3.22a.72.72,0,0,0,.18.62.86.86,0,0,0,.67.26,1.09,1.09,0,0,0,.73-.26,1,1,0,0,0,.36-.62.7.7,0,0,0-.18-.61.86.86,0,0,0-.67-.26,1.1,1.1,0,0,0-.73.26A1,1,0,0,0,203,97.48Z"/></g></g></svg>
