<?xml version="1.0" encoding="UTF-8"?>
<svg width="192px" height="70px" viewBox="0 0 192 70" version="1.1" xmlns="http://www.w3.org/2000/svg" xmlns:xlink="http://www.w3.org/1999/xlink">
    <!-- Generator: Sketch 48.2 (47327) - http://www.bohemiancoding.com/sketch -->
    <title>IGD LOGO-vector</title>
    <desc>Created with Sketch.</desc>
    <defs></defs>
    <g id="Home" stroke="none" stroke-width="1" fill="none" fill-rule="evenodd" transform="translate(-341.000000, -671.000000)">
        <g id="Group-5" transform="translate(341.000000, 671.000000)">
            <g id="IGD-LOGO-vector">
                <path d="M164.599166,22.819278 C164.441116,23.0870442 164.286864,23.3567161 164.132137,23.6297233 C164.632864,23.632582 165.128845,23.6368701 165.621978,23.6435404 C165.277877,23.3643394 164.935673,23.0879971 164.599166,22.819278 M147.657029,16.9541506 C145.502242,17.6569177 143.875235,18.2615356 142.952093,18.6198277 C142.374477,20.653326 142.046038,22.7906909 142,25 C143.545372,24.7970313 145.074132,24.6178853 146.584382,24.4639912 C147.2218,23.13326 147.896714,21.7929998 148.61292,20.4641745 C148.269293,19.2463625 147.949872,18.0714312 147.657029,16.9541506 M183.26181,12.4006964 C183.780573,13.9715595 184.242381,15.5343229 184.652455,17.079934 C186.207319,15.9431189 187.66631,14.7376947 189,13.4584204 L188.997627,13.4555617 C187.113849,12.9814917 185.198271,12.6370167 183.26181,12.4006964 M174.937875,12 C173.983883,12.0185816 173.032739,12.0557449 172.087765,12.1114898 C171.189778,13.197801 170.265213,14.3727323 169.337326,15.6305662 C171.580393,17.9041964 173.663513,20.2221367 175.57292,22.5067253 C176.752358,21.9230713 177.910912,21.3113066 179.039565,20.6742899 C177.71869,17.3572292 176.325672,14.4818398 174.937875,12" id="Fill-1" fill="#E77A39"></path>
                <path d="M166.498118,0 C163.779144,1.51742898 161.28087,3.49838728 159,5.78478996 C161.664858,7.7373023 164.179132,9.83390977 166.533411,12 C168.406293,11.7584425 170.33235,11.5700462 172.282877,11.457195 C172.868271,10.7572378 173.4419,10.0959857 174,9.47064081 C171.105973,4.75467299 168.341825,1.73054055 166.498118,0" id="Fill-2" fill="#5B649F"></path>
                <path d="M172,12 C169.962996,12.0982941 167.953991,12.2623883 166,12.4727864 C167.083586,13.3054427 168.133279,14.1486596 169.152517,15 C170.113795,13.9277011 171.069668,12.9260764 172,12" id="Fill-3" fill="#62443D"></path>
                <path d="M149.635932,23.5430467 C148.607058,23.6257967 147.572985,23.7198307 146.526624,23.8256191 C145.178737,26.6240727 144.005716,29.3905548 143,31.9948281 C143.000945,31.997179 143.000945,31.9985895 143.00189,32 C145.623464,31.5100825 148.618873,30.8833455 151.825539,30.1000418 C151.023045,27.8789573 150.293807,25.6715077 149.635932,23.5430467 M163.134649,23 C162.64786,23 162.156817,23.0018807 161.662938,23.0061122 C162.056151,23.7014941 162.456925,24.3837112 162.866206,25.0560547 C163.238151,24.3564413 163.616712,23.6714032 164,23.0018807 C163.712652,23 163.423415,23 163.134649,23" id="Fill-4" fill="#5B649F"></path>
                <path d="M148.026399,20.6829206 C147.311729,22.1169766 146.636421,23.563373 146,25 C147.050427,24.8843089 148.087575,24.7814723 149.119033,24.6909761 C148.73111,23.3196504 148.366424,21.9781472 148.026399,20.6829206 M158.771578,19 C159.522763,20.7549062 160.333702,22.4568515 161.188271,24.1037792 C161.68337,24.0991516 162.176573,24.0970949 162.665033,24.0970949 C162.95479,24.0970949 163.245021,24.0970949 163.533354,24.0991516 C163.687954,23.8045248 163.84208,23.5134973 164,23.2245265 C162.176573,21.6531836 160.43092,20.2520353 158.771578,19" id="Fill-5" fill="#62443D"></path>
                <path d="M165.914588,23.893612 C166.748391,24.5638909 167.595596,25.2653895 168.460033,26 C169.987396,25.4143929 171.504228,24.7937818 173,24.1334365 C170.742701,24.0118687 168.377227,23.9271969 165.914588,23.893612 M155,4 C155.257512,5.94981616 155.64378,7.86652046 156.137265,9.74065235 C157.028506,8.67728827 157.958517,7.65649659 158.925863,6.69057602 C157.652662,5.75965942 156.342126,4.85948956 155,4" id="Fill-6" fill="#D2DB2F"></path>
                <path d="M168.749492,15 C167.154275,17.0862338 165.540029,19.4130447 164,21.9670418 C164.337312,22.2274747 164.681285,22.4952958 165.025258,22.7658874 C167.472557,22.7986724 169.825181,22.8813276 172.066952,23 C173.057004,22.5710245 174.035163,22.1263492 175,21.664127 C173.085074,19.449062 170.997924,17.2035209 168.749492,15" id="Fill-7" fill="#BE7332"></path>
                <path d="M158.668193,6 C157.742615,6.9800228 156.852759,8.0157178 156,9.09460676 C156.414014,10.764293 156.906801,12.399904 157.465537,14 C160.108999,13.3751275 162.987864,12.8092867 166,12.3965445 C163.708725,10.1672566 161.26082,8.00947867 158.668193,6" id="Fill-8" fill="#5A653D"></path>
                <path d="M165.925165,13 C162.774177,13.4035664 159.764478,13.9568278 157,14.5678085 C157.582399,16.1295167 158.235203,17.6583763 158.938296,19.1445331 C160.614129,20.2871891 162.37713,21.5664008 164.218679,23 C165.769028,20.4045049 167.393135,18.0398874 169,15.919756 C168.006186,14.9361802 166.98172,13.9619897 165.925165,13" id="Fill-9" fill="#594236"></path>
                <path d="M183.073342,34 C181.76709,34.928672 180.404672,35.8535899 179,36.7602065 C180.965819,38.6996715 182.967193,40.7766307 184.998454,43 C185,42.9985922 185,43 185,42.9981229 C184.45225,39.7897701 183.801443,36.7954012 183.073342,34" id="Fill-10" fill="#D2DB2F"></path>
                <path d="M186.37553,25.0769808 C186.689649,27.0637126 186.93501,28.9888597 187.123387,30.8248842 C188.92804,29.1681061 190.56645,27.5453749 192,26.0252848 L192,26.0137689 C190.382311,25.7088497 188.497598,25.386907 186.37553,25.0769808 M177,24 C179.118772,26.7798223 181.00584,29.4870447 182.650372,32 C181.981162,29.2537239 181.252143,26.7027162 180.482151,24.3334585 C179.361307,24.213794 178.201375,24.1016398 177,24" id="Fill-11" fill="#DC3E33"></path>
                <path d="M178.362703,20.4256996 C177.267891,21.0817304 176.143153,21.7107943 175,22.3114204 C175.453486,22.8850796 175.897304,23.4582485 176.330533,24.0279852 C177.507294,24.1275175 178.638938,24.2373463 179.73467,24.3545297 C179.290392,22.9826507 178.831381,21.6725504 178.362703,20.4256996 M188.024487,13 C186.730786,14.3164743 185.315541,15.556951 183.806376,16.7268236 C184.520905,19.5897262 185.072454,22.3957532 185.496015,25.0826356 C187.570541,25.3861356 189.413029,25.701403 190.994475,26 C190.999079,25.8063287 191,25.6126575 191,25.4175153 C191,20.9179679 189.921302,16.6861281 188.024487,13" id="Fill-12" fill="#DA322A"></path>
                <path d="M157.054301,42.4369228 C156.627583,44.2371032 156.273907,46.0939822 156,48 C157.231619,47.7604484 158.4642,47.4580559 159.6963,47.1027447 C158.770303,45.6309437 157.889476,44.0641725 157.054301,42.4369228 M168.584334,26 C167.181163,26.5343843 165.769342,27.0390018 164.361365,27.514325 C167.694858,32.6441304 171.390197,37.0269318 174.575204,40.4004983 C176.443537,39.2844809 178.257088,38.1046776 180,36.8913277 C176.007689,32.6375156 172.175396,29.0385722 168.584334,26" id="Fill-13" fill="#DC3E33"></path>
                <path d="M152.046825,31 C148.759405,31.7878602 145.687108,32.418243 143,32.9110103 C145.021388,39.4952709 149.755563,44.9374652 155.934556,48 L155.936979,47.9995271 C156.212667,46.0918271 156.569753,44.2333092 157,42.43154 C155.126389,38.8123957 153.476138,34.8858629 152.046825,31" id="Fill-14" fill="#61373A"></path>
                <path d="M172.493699,24 C171.014118,24.6722228 169.510849,25.3044783 168,25.9001371 C171.540476,28.9968885 175.31831,32.6647405 179.254856,37 C180.54635,36.0696744 181.798996,35.120569 183,34.1676112 C182.828496,33.4274919 182.649885,32.6989295 182.46701,31.9867393 C180.812609,29.5699152 178.914216,26.9662555 176.783677,24.2927733 C175.403588,24.1825018 173.972332,24.0833056 172.493699,24" id="Fill-15" fill="#B73D2E"></path>
                <path d="M174.723677,22 C173.828748,22.5712654 172.918794,23.1219652 172,23.6526707 C173.379295,23.750357 174.714396,23.8680377 176,24 C175.585018,23.3361897 175.159872,22.6683805 174.723677,22" id="Fill-16" fill="#B6332E"></path>
                <path d="M146.00192,11 C146.00192,11.0008629 146.00192,11.0017258 146,11.0025887 C146.370021,12.4375701 146.829787,14.1288291 147.37594,16 C148.474964,15.6807317 149.709327,15.3377341 151.05983,14.990422 C151.366981,14.5516438 151.680851,14.1167486 152,13.6857365 C149.665174,12.5096212 147.645177,11.6372422 146.00192,11" id="Fill-17" fill="#90C35A"></path>
                <path d="M163.082149,25 C162.714476,25.651858 162.352131,26.3194935 162,27 C162.665187,26.7994602 163.331705,26.591447 164,26.3776209 C163.691829,25.9242267 163.384991,25.4650197 163.082149,25" id="Fill-18" fill="#90C35A"></path>
                <path d="M173.564296,40 C168.939075,42.7428466 163.978945,45.0838194 159,46.5149497 C159.63501,47.5161898 160.289305,48.4719607 160.966648,49.3730767 C162.774779,49.7822992 164.659581,50 166.594243,50 C171.532266,50 176.133968,48.5904561 180,46.16176 C178.607683,44.9611905 176.27414,42.8507785 173.564296,40" id="Fill-19" fill="#90C35A"></path>
                <path d="M152,16 C150.533281,16.4147347 149.192653,16.8243174 148,17.2055641 C148.32148,18.4137043 148.672659,19.6841834 149.049889,21 C149.97004,19.3132406 150.954279,17.6373004 152,16" id="Fill-20" fill="#93B33D"></path>
                <path d="M161.817717,22.9969831 C158.060975,23.0299373 154.104554,23.1909956 150,23.5270364 C150.646866,25.62822 151.363386,27.8073799 152.151884,30 C155.242258,29.2415874 158.530452,28.3337201 161.868334,27.25644 C162.236578,26.4952425 162.614574,25.7493618 163,25.0206544 C162.597857,24.3569274 162.204072,23.6834532 161.817717,22.9969831 M152.468119,14 C152.159779,14.4636807 151.85701,14.9315386 151.559814,15.4031098 C152.280979,15.1961012 153.040221,14.9863077 153.826862,14.7792991 C153.363422,14.506382 152.910198,14.246925 152.468119,14" id="Fill-21" fill="#79AC58"></path>
                <path d="M152.939934,15 C152.146435,15.2129782 151.38104,15.4288216 150.651245,15.6422773 C149.712536,17.1593888 148.827694,18.71327 148,20.2776569 C148.334919,21.4805539 148.695132,22.7264286 149.079703,24 C153.21958,23.6542686 157.2105,23.4885658 161,23.4546612 C160.155443,21.925134 159.35398,20.3445111 158.612006,18.7147026 C156.578604,17.2711307 154.680575,16.0429246 152.939934,15" id="Fill-22" fill="#7CA440"></path>
                <path d="M154.81518,4 C151.285855,5.95262252 148.26417,8.69376682 146,11.9793551 C147.687531,12.6960607 149.761952,13.6777096 152.159685,15 C153.357319,13.2274031 154.635781,11.5149764 156,9.89717235 C155.490882,7.97463496 155.093149,6.0084256 154.829473,4.00824915 C154.824051,4.00533769 154.820601,4.00194098 154.81518,4" id="Fill-23" fill="#91C33F"></path>
                <path d="M155.544263,9 C154.285051,10.6403444 153.105905,12.3766298 152,14.1739237 C152.433537,14.4356704 152.877081,14.7107011 153.331089,15 C154.490674,14.6688807 155.717587,14.3426814 157,14.0287823 C156.445,12.3884379 155.955509,10.7116851 155.544263,9" id="Fill-24" fill="#7CAB41"></path>
                <path d="M156.995871,14 C155.599174,14.3265662 154.262923,14.6669743 153,15.0119963 C154.841618,16.1316518 156.850206,17.4502204 159,19 C158.273658,17.376397 157.598348,15.7051164 156.995871,14" id="Fill-25" fill="#7D9D40"></path>
                <path d="M164.088772,27 C163.387122,27.2479618 162.687335,27.4901346 161.988948,27.7231415 C159.949265,32.078875 158.189776,36.9286024 157,42.2361426 C157.810279,43.8975831 158.66578,45.4972743 159.564639,47 C164.499506,45.4967919 169.415725,43.0379179 174,40.1569299 C170.90854,36.7115153 167.32336,32.2375898 164.088772,27" id="Fill-26" fill="#93AB3D"></path>
                <path d="M162,28 C158.56471,29.080109 155.180558,29.989895 152,30.7507645 C153.409386,34.5746576 155.036704,38.438572 156.885777,42 C158.105429,36.8800691 159.9091,32.2017684 162,28" id="Fill-27" fill="#7CA440"></path>
                <path d="M166.005,0 L166,0 C166,0 166.001,0.001 166.002,0.0015 C166.0035,0.001 166.0035,0 166.005,0" id="Fill-28" fill="#80ADB8"></path>
                <path d="M179.773013,4 C178.422855,5.19923328 176.356895,7.15390687 174,9.80538956 C174.353828,10.3835833 174.709014,10.9883865 175.064652,11.6211523 C175.466442,11.6134852 175.865065,11.6094261 176.267759,11.6094261 C178.509276,11.6089751 180.765271,11.7293945 183,12 C182.112714,9.33498703 181.049419,6.65012967 179.773013,4" id="Fill-29" fill="#7DADBA"></path>
                <path d="M187.411453,30 C186.329644,30.9233451 185.192012,31.855724 184,32.7890538 C185.591915,35.1202388 186.92589,37.2327117 187.989413,39 C187.993263,38.9952454 187.995669,38.9904908 188,38.9862116 C187.948989,36.4054097 187.784889,33.3572296 187.411453,30" id="Fill-30" fill="#7DADBA"></path>
                <path d="M176.298251,12.0000014 C175.86436,12.0000014 175.432913,12.0044444 175,12.012343 C176.428711,14.5838417 177.864263,17.5631073 179.222613,21 C181.249878,19.8458123 183.189192,18.6077015 185,17.2757945 C184.577836,15.675334 184.103391,14.055127 183.569335,12.4275149 C181.156064,12.1313162 178.719828,11.9995077 176.298251,12.0000014" id="Fill-31" fill="#819D97"></path>
                <path d="M166.798509,0 C166.531689,0 166.266332,0.00442499631 166.002927,0.0127833227 C166.001463,0.0127833227 166.001463,0.0137666552 166,0.0142583215 C167.910665,1.8388318 170.776419,5.02728748 173.77729,10 C176.318177,7.10949408 178.544441,4.97861252 180,3.67127194 L180,3.66881361 C176.140622,1.33929888 171.624194,0 166.798509,0" id="Fill-32" fill="#6991A9"></path>
                <path d="M183.67147,33 C183.450084,33.1659566 183.225564,33.3343902 183,33.5008422 C183.738826,36.4518974 184.397243,39.6129991 184.95071,43 C186.071742,41.9131081 187.092523,40.73011 188,39.4718121 C186.845029,37.6304369 185.397661,35.4289111 183.67147,33" id="Fill-33" fill="#74A89D"></path>
                <path d="M180,24 C180.810594,26.2615899 181.579989,28.6966704 182.28535,31.3181456 C182.700326,31.8902342 183.098426,32.4494185 183.48213,33 C184.709687,32.061813 185.885123,31.1245818 187,30.1964314 C186.800454,28.4438426 186.542831,26.6066592 186.211743,24.7097339 C184.315558,24.4592958 182.236208,24.2165047 180,24" id="Fill-34" fill="#818E95"></path>
                <path d="M184.341939,17 C182.667613,18.266518 180.874468,19.4438446 179,20.5413684 C179.45992,21.735125 179.909901,22.9894379 180.346328,24.3028987 C182.381632,24.5155498 184.274171,24.7540195 186,25 C185.584355,22.427532 185.043113,19.7409928 184.341939,17" id="Fill-35" fill="#828E8E"></path>
                <path d="M182,31 C182.160232,31.6531243 182.315068,32.321263 182.466999,33 C182.646326,32.8516229 182.824824,32.7014794 183,32.5535438 C182.67995,32.0452639 182.346202,31.5285935 182,31" id="Fill-36" fill="#798C8F"></path>
                <polygon id="Fill-37" fill="#1A1919" points="0 69 3 69 3 46 0 46"></polygon>
                <path d="M19.6995017,56.5286228 L29,56.5286228 L29,57.2912575 C29,59.0287425 28.8008269,60.565988 28.4015478,61.902994 C28.0148627,63.1413174 27.3576381,64.2986826 26.4340719,65.3765269 C24.3443867,67.7923353 21.6865684,69 18.4592176,69 C15.3111629,69 12.614163,67.8320958 10.3686844,65.4962874 C8.12367221,63.1508982 7,60.3355689 7,57.0522156 C7,53.6979641 8.14326301,50.8529341 10.4279232,48.5176048 C12.7107177,46.1726946 15.4902788,45 18.7666066,45 C20.5255804,45 22.166543,45.3669461 23.6936924,46.1027545 C25.1508746,46.8380838 26.5852009,48.0323353 27.9934061,49.685509 L25.574409,52.0663473 C23.7282095,49.5413174 21.4780664,48.2785629 18.8239796,48.2785629 C16.4432312,48.2785629 14.4449698,49.1216766 12.8324605,50.8083832 C11.2194848,52.4653892 10.412064,54.5415569 10.412064,57.0373653 C10.412064,59.6122156 11.3123079,61.7334132 13.1090639,63.4 C14.7906074,64.9473054 16.6130181,65.720479 18.5776953,65.720479 C20.2485105,65.720479 21.7495389,65.1437126 23.0803138,63.9882635 C24.4124881,62.8232335 25.1560055,61.4301796 25.311799,59.8071856 L19.6995017,59.8071856 L19.6995017,56.5286228" id="Fill-38" fill="#1A1919"></path>
                <path d="M33,69 L33,46 L37.8850184,46 C40.226721,46 42.076449,46.2287798 43.4317908,46.6853863 C44.8893861,47.131507 46.2109649,47.8917233 47.3970096,48.9641288 C49.7985209,51.1284814 51,53.974884 51,57.4995234 C51,61.0351252 49.7483587,63.8958264 47.2460409,66.0797207 C45.9900587,67.1730976 44.6737855,67.9328374 43.2962566,68.3594164 C42.0103701,68.787902 40.1852408,69 37.8247274,69 L33,69 Z M36.5127951,65.7384574 L38.096278,65.7384574 C39.6734907,65.7384574 40.9844583,65.5740219 42.0311102,65.2461041 C43.0753504,64.8986447 44.018784,64.3481432 44.864305,63.5926931 C46.5939334,62.0341305 47.4577829,60.0032328 47.4577829,57.4995234 C47.4577829,54.976749 46.6026153,52.9320292 44.895174,51.3625041 C43.3565476,49.9617042 41.0900882,49.2620192 38.096278,49.2620192 L36.5127951,49.2620192 L36.5127951,65.7384574 Z" id="Fill-39" fill="#1A1919"></path>
                <polygon id="Fill-40" fill="#1A1919" points="65 55 66 55 66 46 65 46"></polygon>
                <polyline id="Fill-41" fill="#1A1919" points="68 54.4610339 68 45 74.627323 51.7593499 74.627323 45.6030938 76 45.6030938 76 55 69.370668 48.259252 69.370668 54.4610339 68 54.4610339"></polyline>
                <polygon id="Fill-42" fill="#1A1919" points="77 55 78 55 78 46 77 46"></polygon>
                <polyline id="Fill-43" fill="#1A1919" points="83.1201884 47.2762642 83.1201884 55 81.8843402 55 81.8843402 47.2762642 80 47.2762642 80 46 85 46 85 47.2762642 83.1201884 47.2762642"></polyline>
                <polygon id="Fill-44" fill="#1A1919" points="86 55 87 55 87 46 86 46"></polygon>
                <path d="M93.7776262,51.9436327 L90.2537517,51.9436327 L89.3378809,54 L88,54 L92.0723056,45 L96,54 L94.640291,54 L93.7776262,51.9436327 Z M93.2710323,50.7427591 L92.0504775,47.8622537 L90.7712597,50.7427591 L93.2710323,50.7427591 Z" id="Fill-45" fill="#1A1919"></path>
                <polyline id="Fill-46" fill="#1A1919" points="99.1209239 47.2762642 99.1209239 55 97.8845109 55 97.8845109 47.2762642 96 47.2762642 96 46 101 46 101 47.2762642 99.1209239 47.2762642"></polyline>
                <polygon id="Fill-47" fill="#1A1919" points="102 55 103 55 103 46 102 46"></polygon>
                <polyline id="Fill-48" fill="#1A1919" points="106.490504 46 108.983312 51.8010794 111.510493 46 113 46 108.95392 55 105 46 106.490504 46"></polyline>
                <polyline id="Fill-49" fill="#1A1919" points="118 47.2762642 114.367188 47.2762642 114.367188 49.4393479 117.895833 49.4393479 117.895833 50.715612 114.367188 50.715612 114.367188 53.7237358 118 53.7237358 118 55 113 55 113 46 118 46 118 47.2762642"></polyline>
                <path d="M127.850974,46.2417347 C127.750816,46.3649245 127.610983,46.4267536 127.433894,46.4267536 C127.279061,46.4267536 127.151808,46.3799133 127.051651,46.2838909 C126.951494,46.1888052 126.901657,46.0773254 126.901657,45.9489832 C126.901657,45.8599867 126.944236,45.7068192 127.030846,45.4899489 L126.942301,45.3377181 C126.890045,45.2974355 126.828112,45.2777626 126.75505,45.2777626 C126.412967,45.2777626 126.126527,45.6323432 125.896214,46.3438464 C125.768961,46.7551036 125.623805,47.4450603 125.464135,48.4165268 L126.985847,48.4165268 L126.890045,48.8586986 L125.337365,48.8586986 L124.030966,53.1759632 C123.754687,54.3174597 123.385509,55.2402123 122.91956,55.9442211 C122.455062,56.6486982 121.859925,57 121.135599,57 C120.803193,57 120.532237,56.913814 120.31789,56.7423787 C120.106931,56.5709434 120,56.3788985 120,56.1685858 C120,56.0355595 120.044514,55.9128381 120.133059,55.7980796 C120.222088,55.6828526 120.355147,55.6257075 120.532237,55.6257075 C120.688037,55.6257075 120.818677,55.6753581 120.925124,55.7751278 C121.032055,55.8734923 121.084311,55.9952769 121.084311,56.1423553 C121.084311,56.2205785 121.062538,56.3006753 121.012217,56.3826457 C120.965284,56.4636793 120.942543,56.5208244 120.942543,56.5508021 L121.020927,56.6505718 C121.073183,56.676334 121.139954,56.6894492 121.222209,56.6894492 C121.609774,56.6894492 121.938309,56.3943558 122.20733,55.8041688 C122.347647,55.4954916 122.476836,55.0706507 122.596347,54.5301144 L124.218217,48.8586986 L122.955365,48.8586986 L123.050683,48.4165268 L124.372566,48.4165268 C124.621749,47.3902572 124.900448,46.6295718 125.210596,46.1363441 C125.671223,45.3784691 126.240232,45 126.918108,45 C127.227289,45 127.484698,45.0857176 127.689851,45.2580897 C127.897423,45.4290566 128,45.6253171 128,45.8454663 C128,45.9864554 127.950647,46.1190132 127.850974,46.2417347" id="Fill-50" fill="#1A1919"></path>
                <path d="M132.541686,48.577381 C132.847386,48.9629121 133,49.4194139 133,49.9450549 C133,50.856685 132.585492,51.7527473 131.756948,52.632326 C130.902496,53.5448718 129.989637,54 129.019312,54 C128.408384,54 127.918983,53.8287546 127.551578,53.4844322 C127.183231,53.139652 127,52.654304 127,52.0302198 C127,51.0874542 127.411211,50.1854396 128.235987,49.3241758 C129.076778,48.4404762 129.988224,48 130.966557,48 C131.711729,48 132.235516,48.1927656 132.541686,48.577381 M128.424399,53.3576007 C128.608573,53.5924908 128.878003,53.709707 129.23269,53.709707 C129.95431,53.709707 130.5935,53.1799451 131.152614,52.1208791 C131.626472,51.2124542 131.863401,50.3768315 131.863401,49.614011 C131.863401,49.2916667 131.823363,49.0311355 131.744701,48.8333333 C131.58926,48.4592491 131.305699,48.2706044 130.893547,48.2706044 C130.216203,48.2706044 129.580311,48.7641941 128.98634,49.7504579 C128.427697,50.6712454 128.148846,51.5782967 128.148846,52.4697802 C128.148846,52.8264652 128.241168,53.1227106 128.424399,53.3576007" id="Fill-51" fill="#1A1919"></path>
                <path d="M135.519351,48.0350577 L135.542477,48.1177937 L135.529734,48.2182923 L134.852464,50.7915238 L135.006324,50.4862886 C135.324901,49.8655344 135.699641,49.2990028 136.127242,48.7876285 C136.555314,48.274852 136.961676,48.0186974 137.348216,48.0186974 C137.556825,48.0186974 137.717765,48.0878778 137.831036,48.2239015 C137.944308,48.3608601 138,48.516516 138,48.6913369 C138,48.8895294 137.944308,49.0535993 137.831036,49.1835463 C137.717765,49.3125584 137.561544,49.3770645 137.362847,49.3770645 C137.225033,49.3770645 137.120729,49.3513556 137.049934,49.2985354 C136.979139,49.2452477 136.924391,49.1844811 136.882858,49.1138984 L136.803568,48.9694609 L136.741269,48.9063571 L136.651595,48.8829854 C136.47744,48.8829854 136.227298,49.1227797 135.90117,49.6023683 C135.574571,50.0805547 135.282424,50.5994079 135.025675,51.1584606 C134.869926,51.4978186 134.696715,51.9460891 134.505097,52.5037395 C134.385218,52.8557183 134.223334,53.3544718 134.021805,54 L133,54 L134.10959,50.0305391 C134.172362,49.8024307 134.221446,49.5967591 134.259203,49.4172639 C134.297433,49.2373013 134.317727,49.0895918 134.317727,48.9755376 C134.317727,48.8437208 134.283746,48.7422873 134.215783,48.672172 C134.149707,48.6015893 134.03502,48.5665316 133.868888,48.5665316 C133.817444,48.5665316 133.750897,48.571206 133.671135,48.5805547 C133.590429,48.5889685 133.496035,48.5997195 133.383236,48.6123403 L133.383236,48.3954503 L133.65084,48.3426301 C133.996791,48.2720474 134.375779,48.1967903 134.78686,48.1177937 C135.19747,48.0392646 135.414102,48 135.436285,48 L135.519351,48.0350577" id="Fill-52" fill="#1A1919"></path>
                <path d="M68.61782,64.3232382 L72,64.3232382 L72,64.6092187 C72,65.2606983 71.9276346,65.8369704 71.7824514,66.3380349 C71.6413388,66.8026932 71.4025328,67.2371727 71.066938,67.6414733 C70.3075531,68.5473174 69.3405699,69 68.1682497,69 C67.0226142,69 66.0420624,68.5616883 65.2247852,67.686502 C64.4088648,66.8065254 64,65.7512242 64,64.5191612 C64,63.2621886 64.4161013,62.1958697 65.2464948,61.3192463 C66.0768883,60.4397488 67.0877431,60 68.278607,60 C68.9176843,60 69.5156038,60.1384394 70.0705563,60.4138812 C70.6006332,60.689323 71.1221167,61.1362572 71.6341022,61.757079 L70.7544098,62.6504684 C70.082768,61.7034277 69.2650384,61.2291888 68.299412,61.2291888 C67.4337404,61.2291888 66.7078245,61.5458271 66.1207598,62.1776666 C65.5345997,62.8004045 65.2406151,63.5778689 65.2406151,64.5138918 C65.2406151,65.4796146 65.5676165,66.2752821 66.2220715,66.8999361 C66.8331072,67.4805195 67.4957033,67.7703321 68.2094075,67.7703321 C68.8181818,67.7703321 69.3636364,67.554769 69.8484848,67.1207686 C70.3319765,66.684373 70.6024423,66.1607941 70.6585256,65.5529061 L68.61782,65.5529061 L68.61782,64.3232382" id="Fill-53" fill="#1A1919"></path>
                <polyline id="Fill-54" fill="#1A1919" points="75.3565131 60 75.3565131 67.7237358 78 67.7237358 78 69 74 69 74 60 75.3565131 60"></polyline>
                <path d="M78,64.4625879 C78,63.2409401 78.444838,62.1919633 79.3335624,61.3146984 C80.2175292,60.4374334 81.2808585,60 82.5230745,60 C83.7491146,60 84.8019771,60.4417502 85.6792832,61.3257301 C86.5603954,62.2106694 87,63.2735557 87,64.5124707 C87,65.7609785 86.5580166,66.8200277 85.6726225,67.6896184 C84.7853254,68.5635259 83.7115293,69 82.455992,69 C81.3450864,69 80.3459851,68.6119697 79.4615425,67.8344703 C78.4876566,66.9778299 78,65.854029 78,64.4625879 M79.3107258,64.4764975 C79.3107258,65.4357813 79.630914,66.2228736 80.2698631,66.8420912 C80.9054818,67.4593903 81.6391077,67.7682797 82.4726437,67.7682797 C83.3751652,67.7682797 84.1378125,67.4536346 84.7586827,66.8243445 C85.379077,66.1883394 85.6902257,65.4132381 85.6902257,64.4995204 C85.6902257,63.5738116 85.3833589,62.7987103 84.7705767,62.1737369 C84.1601734,61.5449265 83.4060898,61.2302814 82.505947,61.2302814 C81.6100862,61.2302814 80.8540995,61.5449265 80.2360839,62.1737369 C79.6199715,62.7958324 79.3107258,63.5632594 79.3107258,64.4764975" id="Fill-55" fill="#1A1919"></path>
                <path d="M89,69 L89,60 L90.2641913,60 C90.8281221,60 91.2785222,60.0467532 91.6121347,60.1397624 C91.9499349,60.2337662 92.2360878,60.3909367 92.467802,60.6112738 C92.704169,60.8415584 92.8916806,61.1265543 93.0308022,61.4687483 C93.1713196,61.8144239 93.2434394,62.1640785 93.2434394,62.5177121 C93.2434394,63.1633048 93.0107947,63.7094225 92.5501582,64.1565626 C92.9977666,64.3197016 93.3509213,64.6051948 93.607761,65.0125449 C93.869719,65.4174081 94,65.8874275 94,66.4231003 C94,67.1268859 93.7678206,67.7207516 93.3025312,68.2076817 C93.0224269,68.5056093 92.7088219,68.7145068 92.3589243,68.8313899 C91.9769216,68.9437966 91.5,69 90.9258329,69 L89,69 Z M90.2702401,63.8646035 L90.6699237,63.8646035 C91.1407966,63.8646035 91.4874372,63.7536889 91.7079844,63.5298701 C91.927601,63.3065488 92.036944,62.9762918 92.036944,62.5415861 C92.036944,62.11832 91.9252745,61.796021 91.6991439,61.577176 C91.4730132,61.3568389 91.1468453,61.2474164 90.7173832,61.2474164 L90.2702401,61.2474164 L90.2702401,63.8646035 Z M90.2702401,67.7237358 L91.0551833,67.7237358 C91.6298157,67.7237358 92.0522985,67.6033711 92.3212358,67.3621442 C92.6045971,67.1015198 92.746045,66.7717602 92.746045,66.3718707 C92.746045,65.9834208 92.6097152,65.6556507 92.3379862,65.3915446 C92.0732366,65.1314175 91.5972455,65.0011053 90.9142006,65.0011053 L90.2702401,65.0011053 L90.2702401,67.7237358 Z" id="Fill-56" fill="#1A1919"></path>
                <path d="M99.7767167,65.9432716 L96.253297,65.9432716 L95.3365166,68 L94,68 L98.0713961,59 L102,68 L100.640746,68 L99.7767167,65.9432716 Z M99.2705775,64.7429285 L98.049568,61.8630408 L96.7717144,64.7429285 L99.2705775,64.7429285 Z" id="Fill-57" fill="#1A1919"></path>
                <polyline id="Fill-58" fill="#1A1919" points="104.356193 60 104.356193 67.7237358 107 67.7237358 107 69 103 69 103 60 104.356193 60"></polyline>
                <path d="M112,69 L112,60 L113.900179,60 C114.809503,60 115.52876,60.0895275 116.056949,60.2680851 C116.622651,60.4431611 117.136835,60.7395966 117.596999,61.1598784 C118.531833,62.0074054 119,63.1205305 119,64.5007461 C119,65.8834485 118.512826,67.0030395 117.539478,67.8560376 C117.050304,68.2852722 116.539621,68.582205 116.00393,68.7498204 C115.503251,68.916441 114.794498,69 113.87517,69 L112,69 Z M113.364987,67.7237358 L113.981208,67.7237358 C114.595427,67.7237358 115.103608,67.6595745 115.511754,67.5317491 C115.917899,67.3954684 116.28503,67.1796076 116.612647,66.8836695 C117.285388,66.2743852 117.622008,65.4800774 117.622008,64.5007461 C117.622008,63.512462 117.288389,62.7121857 116.625652,62.098425 C116.027438,61.5508151 115.145123,61.2762642 113.981208,61.2762642 L113.364987,61.2762642 L113.364987,67.7237358 Z" id="Fill-59" fill="#1A1919"></path>
                <polyline id="Fill-60" fill="#1A1919" points="125 61.2762642 121.36655 61.2762642 121.36655 63.4388505 124.895343 63.4388505 124.895343 64.7151147 121.36655 64.7151147 121.36655 67.7237358 125 67.7237358 125 69 120 69 120 60 125 60 125 61.2762642"></polyline>
                <polyline id="Fill-61" fill="#1A1919" points="126.490098 60 128.983061 65.8013776 131.510898 60 133 60 128.953668 69 125 60 126.490098 60"></polyline>
                <polyline id="Fill-62" fill="#1A1919" points="139 61.2762642 135.367324 61.2762642 135.367324 63.4388505 138.896324 63.4388505 138.896324 64.7151147 135.367324 64.7151147 135.367324 67.7237358 139 67.7237358 139 69 134 69 134 60 139 60 139 61.2762642"></polyline>
                <polyline id="Fill-63" fill="#1A1919" points="141.356682 60 141.356682 67.7237358 144 67.7237358 144 69 140 69 140 60 141.356682 60"></polyline>
                <path d="M144,64.4625879 C144,63.2409401 144.443886,62.1919633 145.333562,61.3146984 C146.217053,60.4374334 147.279907,60 148.522123,60 C149.749115,60 150.800074,60.4417502 151.678807,61.3257301 C152.558968,62.2106694 153,63.2735557 153,64.5124707 C153,65.7609785 152.558017,66.8200277 151.672147,67.6896184 C150.784374,68.5635259 149.711529,69 148.454565,69 C147.344135,69 146.345985,68.6119697 145.459164,67.8344703 C144.486705,66.9778299 144,65.854029 144,64.4625879 M145.309774,64.4764975 C145.309774,65.4357813 145.630914,66.2228736 146.269387,66.8420912 C146.90453,67.4593903 147.638156,67.7682797 148.471692,67.7682797 C149.374689,67.7682797 150.137337,67.4536346 150.758207,66.8243445 C151.379077,66.1883394 151.688798,65.4132381 151.688798,64.4995204 C151.688798,63.5738116 151.382883,62.7987103 150.769625,62.1737369 C150.158746,61.5449265 149.405614,61.2302814 148.504996,61.2302814 C147.60961,61.2302814 146.853624,61.5449265 146.235608,62.1737369 C145.618544,62.7958324 145.309774,63.5632594 145.309774,64.4764975" id="Fill-64" fill="#1A1919"></path>
                <path d="M156.346665,65.3447914 L156.346665,69 L155,69 L155,60 L156.525958,60 C157.271697,60 157.835189,60.051727 158.215447,60.1566731 C158.602108,60.262614 158.939513,60.4595745 159.232095,60.7520309 C159.74436,61.2573639 160,61.8940039 160,62.6634429 C160,63.4870959 159.726628,64.1406466 159.180869,64.6226029 C158.633632,65.1050566 157.896266,65.3447914 156.969264,65.3447914 L156.346665,65.3447914 Z M156.346665,64.0864327 L156.848094,64.0864327 C158.084425,64.0864327 158.700128,63.6064659 158.700128,62.6460348 C158.700128,61.7174358 158.06423,61.2528875 156.789971,61.2528875 L156.346665,61.2528875 L156.346665,64.0864327 Z" id="Fill-65" fill="#1A1919"></path>
                <polyline id="Fill-66" fill="#1A1919" points="160 68.5898851 161.723664 59 164.536674 65.9325184 167.450649 59 169 68.5898851 167.731361 68.5898851 166.941292 63.2056489 164.515847 69 162.159674 63.2002267 161.279052 68.5898851 160 68.5898851"></polyline>
                <polyline id="Fill-67" fill="#1A1919" points="176 61.2762642 172.365776 61.2762642 172.365776 63.4388505 175.893361 63.4388505 175.893361 64.7151147 172.365776 64.7151147 172.365776 67.7237358 176 67.7237358 176 69 171 69 171 60 176 60 176 61.2762642"></polyline>
                <polyline id="Fill-68" fill="#1A1919" points="178 68.4605444 178 59 184.627825 65.7578813 184.627825 59.6026043 186 59.6026043 186 69 179.369161 62.2587625 179.369161 68.4605444 178 68.4605444"></polyline>
                <polyline id="Fill-69" fill="#1A1919" points="189.120924 61.2762642 189.120924 69 187.883152 69 187.883152 61.2762642 186 61.2762642 186 60 191 60 191 61.2762642 189.120924 61.2762642"></polyline>
                <polygon id="Fill-70" fill="#6F8F9D" points="57 70 58 70 58 45 57 45"></polygon>
            </g>
        </g>
    </g>
</svg>