<svg xmlns="http://www.w3.org/2000/svg" viewBox="0 0 247.33 262.67"><defs><style>.cls-1{isolation:isolate;}.cls-2,.cls-7{fill:#fe6612;}.cls-3{fill:#5e979f;}.cls-3,.cls-4,.cls-5,.cls-6,.cls-7{mix-blend-mode:multiply;}.cls-10,.cls-4{fill:#524da1;}.cls-5{fill:#fe1a0e;}.cls-6{fill:#76c13b;}.cls-8{fill:#ffcd22;}.cls-9{fill:#fff;}</style></defs><title>vertical outlines</title><g class="cls-1"><g id="Layer_1" data-name="Layer 1"><polygon class="cls-2" points="135.39 71.82 90.45 71.82 112.92 3.77 135.39 71.82"/><polygon class="cls-3" points="139.89 63.14 87.78 102.47 72.8 28.43 139.89 63.14"/><polygon class="cls-4" points="148.05 81.97 106.17 65.7 150 14.91 148.05 81.97"/><polygon class="cls-5" points="102.66 56.73 80.92 99.21 40.87 49.63 102.66 56.73"/><polygon class="cls-4" points="109.75 56.7 113.31 119.4 31.98 92.56 109.75 56.7"/><polygon class="cls-6" points="147.42 116.87 101.65 57.44 193.61 33.95 147.42 116.87"/><polygon class="cls-7" points="100.71 75.36 126.54 118.22 58.34 130.1 100.71 75.36"/><polygon class="cls-3" points="140.53 111.14 132 64.27 197.34 76.58 140.53 111.14"/><polygon class="cls-4" points="132.57 113.83 136.97 74.69 204.96 102.21 132.57 113.83"/><path class="cls-8" d="M90.24,55.2l-.4.08L89.36,55H88.23L88,54.82l-.32.08-.48.23-.49.07-.47-.38-.32-.16-.41-.46-.63-.16-.56.46-.09,1.08-.48.39v.76l-1,.69-.8.46-1.13.23-1.6,2.53-.24.15-.07.54L78.6,62l.32,1.07-.16.69a3.1,3.1,0,0,1-1.85,1.84L75.3,66.87l-.4.07-1,.54-2.09,2.61-.47.93L71,71.7l-.16.76-.24.54s-.65.46-.88.69l-1.13,2s-.64.85-.32,1.15l.17.77,1,1.14v.62l-.41.15.09.77.32,1-.25.92L69,83l-.32.54v2.07l-.32.31-1,.92,1.21,1.77s-1.27.61.09,1.61l.06.39,1.13,1,1.21.54.56,1,.65.15a3,3,0,0,1,1.13,2.38l1.35,1.18.89.75.72-.09.48.92,1.85,1.23.56.61,1,.46.7.41.59.2.4.22.55.16.49-.54,1-.07,1-.54L87,100.4a15.05,15.05,0,0,1,3.05.46l.4.23,4.26-1.77.88-.31,1.53-.08,2,.08s1.77.15,1.85,1.69l.81.84a2.09,2.09,0,0,0,1.84-.22l1.53-.23.65.23.56.45.72.54s.48,1.15.24,1.53l-.07,1.39-.57.53.48.54-.48,1.07-.48,1,.08.92.4.77.08.61,2.41,2.15-.08.45.88.85.64.77.65.38.16.31-.25.31.16.76.16.92.88,1.38.09,2.84a1.16,1.16,0,0,1,.4,1.69,3.77,3.77,0,0,1-1.85,3.38v1.22s-.72.46-.8.85V131l-.08,2.15s3.13,5.07,3.13,5.84a6,6,0,0,0,.81,1.23s.4,0,.32,1.15l.16,2.23a10.17,10.17,0,0,1,.8,3.3l1,1.69,1,.69a4.75,4.75,0,0,0,1.28,3s0,1,.42,1.23a3.69,3.69,0,0,1,.47,2.83l-.24.08v.77l1,.92.24.61,1,.45s-.16.7,1.28,0c0,0,2.89.39,3-.92,0,0,.65-.08.88.31a1.16,1.16,0,0,0,1.13-.54,1.87,1.87,0,0,0,2.08.23,8.77,8.77,0,0,1,2.65-.61s3-2.23,3.38-3.15l1-.69s.8-1.85,1.36-2.07c0,0,1.2-1.69,1.77-1.77a5.16,5.16,0,0,0,.65-2.31l.56-.54.48-.84s-1.53-.54-.24-1.77l1.61-.84.88-.08s.73-.23.73-1.61l.32-.15s.4-3.76-1.28-5.45c0,0,1-1.08,1.45-1.15a6,6,0,0,0,2.48-2.69,2.18,2.18,0,0,0,1.61-.69s2.33-.38,2.89-2.3l.56-.69v-1.3s-.8-3-.16-4h.32v-.69l-.24-.54-.89-.85-.32-1.22s-1-2.08-.31-2.53a3,3,0,0,1-.08-3.53l.88-1.3.23-.62s5.39-6.68,6.75-7.14a7.74,7.74,0,0,0,2.41-1.45s1.44-1.46,1.77-1.46a1.06,1.06,0,0,0,.32-.62,4.47,4.47,0,0,0,1.29-2s.4-.61.56-.85a3.28,3.28,0,0,0,.32-.76l1.13-1.53.56-.69.24-.77.64-1.23.17-2s-.25-.77-1.45-.38l-1.6.22-1.12.47-1,.15-.65-.15-1.61.69s-.25-.46-1.13,0c0,0-1,.38-1.44.15,0,0-2.25-1.31-2.09-1.93,0,0,1-.15.24-1.15,0,0-2.33-2.23-2.81-2.53,0,0-1.61-1.15-2-1.54l-.8-1-.4-.23a3.73,3.73,0,0,0-1.61-3.3s-1.44-1.92-1.13-3a3,3,0,0,0-.32-1.15l-.24-1.08-2-1.61L145,72.93l-1.12-1.39a8.55,8.55,0,0,0-1.45-3.21v-.47s-2-2.53-1.85-3.22c0,0,.4-.85.8.31,0,0,.81,2.07,1.69,2.22l.47-.23.09-.84.64-.77-.08-.92-.16-.23v-.92a1.55,1.55,0,0,1-.56-1.08s-.73-.92-1-.61c0,0,.24,1-2.25.07l-1-.15h-.81l-1,.08s-1.12,1.61-4.27,0l-1.6-.08-.72-.23-1.13-.15a.5.5,0,0,0-.4-.76l-1.85-.16s-2.33-1.61-3.53-1.3A3.86,3.86,0,0,1,122.53,60s-.72.32-.48.85,1,1.92-1.53,2.38a3.24,3.24,0,0,1-1.37-.92h-.72a3,3,0,0,0-2.16-.69A4.26,4.26,0,0,1,114.82,60a2.25,2.25,0,0,0-1.85-.84s-2.74.07-3.05-.39l-.8-.31L107.59,57s1.21-1.85,1.93-1.85l-.08-.45s-.56-.85-.89-.85c0,0,.57-1.46.89-1.54v-.54a1.69,1.69,0,0,1-1.45-.16l-.8-.54a4.43,4.43,0,0,0-1.45.77s-.4.31-2.56,0c0,0-1-.69-1.2-.16l-.25.54h-1.21s0-.91-2.48-.23a3,3,0,0,0-.89.69h-1.2a14.5,14.5,0,0,0-1.36.61l-1.3.08s-.56.07-.71.3l-.89.46Z"/><path class="cls-9" d="M107.18,51.14l.8.54a1.26,1.26,0,0,0,.81.26,2.17,2.17,0,0,0,.64-.1v.54c-.32.08-.89,1.54-.89,1.54.32,0,.89.85.89.85l.08.45c-.73,0-1.93,1.85-1.93,1.85l1.53,1.38.8.31c.24.35,1.86.39,2.64.39H113a2.25,2.25,0,0,1,1.85.84,4.26,4.26,0,0,0,1.45,1.68,3,3,0,0,1,2.16.69h.72a3.24,3.24,0,0,0,1.37.92c2.56-.46,1.77-1.85,1.53-2.38s.48-.85.48-.85A3.86,3.86,0,0,0,124,58.89a1.37,1.37,0,0,1,.34,0,7.79,7.79,0,0,1,3.19,1.34l1.85.16a.5.5,0,0,1,.4.76l1.13.15.72.23,1.6.08a5.57,5.57,0,0,0,2.51.72,2.13,2.13,0,0,0,1.76-.72l1-.08h.81l1,.15a5,5,0,0,0,1.64.39c.72,0,.61-.47.61-.47a.22.22,0,0,1,.16-.06c.35,0,.88.67.88.67a1.55,1.55,0,0,0,.56,1.08v.92l.16.23.08.92-.64.77-.09.84-.47.23C142.21,67,141.4,65,141.4,65c-.16-.47-.33-.61-.46-.61s-.34.3-.34.3c-.16.69,1.85,3.22,1.85,3.22v.47a8.55,8.55,0,0,1,1.45,3.21L145,72.93l.08,1.54,2,1.61.24,1.08a3,3,0,0,1,.32,1.15c-.32,1.07,1.13,3,1.13,3a3.73,3.73,0,0,1,1.61,3.3l.4.23.8,1c.4.39,2,1.54,2,1.54.48.3,2.81,2.53,2.81,2.53.72,1-.24,1.15-.24,1.15-.16.61,2.09,1.93,2.09,1.93a.72.72,0,0,0,.36.07,3.87,3.87,0,0,0,1.08-.23,1.51,1.51,0,0,1,.69-.21.48.48,0,0,1,.44.21l1.61-.69.65.15,1-.15,1.12-.47,1.6-.22a2,2,0,0,1,.62-.11.81.81,0,0,1,.83.49l-.17,2L167.5,95l-.24.77-.56.69L165.58,98a3.28,3.28,0,0,1-.32.76c-.17.23-.56.85-.56.85a4.47,4.47,0,0,1-1.29,2,1.06,1.06,0,0,1-.32.62c-.33,0-1.77,1.46-1.77,1.46a7.74,7.74,0,0,1-2.41,1.45c-1.36.46-6.75,7.14-6.75,7.14l-.23.62-.88,1.3a3,3,0,0,0,.08,3.53c-.73.46.31,2.53.31,2.53l.32,1.22.89.85.24.54v.69h-.32c-.64,1,.16,4,.16,4v1.3l-.56.69c-.56,1.92-2.89,2.3-2.89,2.3a2.18,2.18,0,0,1-1.61.69,6,6,0,0,1-2.48,2.69c-.4.07-1.45,1.15-1.45,1.15,1.68,1.69,1.28,5.45,1.28,5.45l-.32.15c0,1.38-.73,1.61-.73,1.61l-.88.08-1.61.84c-1.29,1.23.24,1.77.24,1.77l-.48.84-.56.54A5.16,5.16,0,0,1,140,150c-.57.07-1.77,1.77-1.77,1.77-.56.23-1.36,2.07-1.36,2.07l-1,.69c-.4.92-3.38,3.15-3.38,3.15l-.19,0a11.25,11.25,0,0,0-2.46.64,2.51,2.51,0,0,1-.93.19,1.63,1.63,0,0,1-1.15-.42,1.29,1.29,0,0,1-1,.55h-.14a.87.87,0,0,0-.75-.32h-.14c-.05.82-1.21,1-2.06,1a7.63,7.63,0,0,1-.91-.05,2.46,2.46,0,0,1-1,.31c-.38,0-.31-.31-.31-.31l-1-.45-.24-.61-1-.92v-.77l.24-.08a3.69,3.69,0,0,0-.47-2.83c-.42-.23-.42-1.23-.42-1.23a4.75,4.75,0,0,1-1.28-3l-1-.69-1-1.69a10.17,10.17,0,0,0-.8-3.3l-.16-2.23c.08-1.15-.32-1.15-.32-1.15a6,6,0,0,1-.81-1.23c0-.77-3.13-5.84-3.13-5.84l.08-2.15v-2.06c.08-.39.8-.85.8-.85v-1.22a3.77,3.77,0,0,0,1.85-3.38,1.16,1.16,0,0,0-.4-1.69l-.09-2.84-.88-1.38-.16-.92-.16-.76.25-.31-.16-.31-.65-.38-.64-.77-.88-.85.08-.45-2.41-2.15-.08-.61-.4-.77-.08-.92.48-1,.48-1.07-.48-.54.57-.53.07-1.39c.24-.38-.24-1.53-.24-1.53l-.72-.54-.56-.45-.65-.23-1.53.23a1.77,1.77,0,0,1-1.09.34,2.36,2.36,0,0,1-.75-.12l-.81-.84c-.07-1.54-1.85-1.69-1.85-1.69l-2-.08L95.61,99l-.88.31-4.26,1.77-.4-.23A15.05,15.05,0,0,0,87,100.4l-1.93.16-1,.54-1,.07-.49.54-.55-.16-.4-.22-.59-.2-.7-.41-1-.46-.56-.61L76.9,98.41l-.48-.92-.72.09-.89-.75-1.35-1.18a3,3,0,0,0-1.13-2.38l-.65-.15-.56-1-1.21-.54-1.13-1-.06-.39c-1.36-1-.09-1.61-.09-1.61l-1.21-1.77,1-.92.32-.31V83.52L69,83l.16-.77.25-.92-.32-1L69,79.53l.41-.15v-.62l-1-1.14-.17-.77c-.32-.31.32-1.15.32-1.15l1.13-2c.24-.22.88-.69.88-.69l.24-.54L71,71.7l.41-.69.47-.93,2.09-2.61,1-.54.4-.07,1.61-1.23a3.1,3.1,0,0,0,1.85-1.84l.16-.69L78.6,62l.32-.69.07-.54.24-.15,1.6-2.53L82,57.89l.8-.46,1-.69V56l.48-.39.09-1.08.56-.46.63.16.41.46.32.16.47.38.49-.07.48-.23.32-.08.24.15h1.13l.48.31.4-.08,1.44-1,.89-.46c.15-.23.71-.3.71-.3l1.3-.08a14.5,14.5,0,0,1,1.36-.61h1.2a3,3,0,0,1,.89-.69,5.93,5.93,0,0,1,1.53-.25c1,0,1,.48,1,.48h1.21l.25-.54a.33.33,0,0,1,.33-.2,2,2,0,0,1,.87.36,11.82,11.82,0,0,0,1.63.14,1.83,1.83,0,0,0,.94-.14,4.43,4.43,0,0,1,1.45-.77m0-2.35a2.35,2.35,0,0,0-.75.12,7.57,7.57,0,0,0-1.68.78c-.17,0-.43,0-.8-.05a3.63,3.63,0,0,0-1.65-.44,2.72,2.72,0,0,0-1.49.43,4.18,4.18,0,0,0-1.25-.18,8.17,8.17,0,0,0-2.15.34,2.35,2.35,0,0,0-.37.14,4.94,4.94,0,0,0-.78.47h-.31a2.35,2.35,0,0,0-.87.17c-.18.07-.67.27-1.12.48l-.81,0-.16,0a3.71,3.71,0,0,0-1.77.69l-.62.32-.24.15-.57.39a2.35,2.35,0,0,0-.43,0h-.55a2.35,2.35,0,0,0-1.37-.08l-.23.06a2.35,2.35,0,0,0-1.13-.66l-.63-.16a2.35,2.35,0,0,0-2.06.46l-.56.46A2.35,2.35,0,0,0,82,54.31v.14a2.35,2.35,0,0,0-.51,1l-.31.18-.76.16a2.35,2.35,0,0,0-1.51,1L77.51,59a2.35,2.35,0,0,0-.85,1.5l0,.19-.17.37a2.35,2.35,0,0,0-.12,1.67l.13.43a1.26,1.26,0,0,1-.18.24,2.35,2.35,0,0,0-.81.4l-1.16.89a2.35,2.35,0,0,0-.58.23l-1,.54a2.35,2.35,0,0,0-.68.57L70,68.62a2.35,2.35,0,0,0-.26.4l-.44.86-.37.63a2.35,2.35,0,0,0-.27.7l-.07.33c-.2.15-.39.31-.54.45a2.35,2.35,0,0,0-.42.54l-1.07,1.88A3.29,3.29,0,0,0,66,77.67l.1.45a2.35,2.35,0,0,0,.56,1.08l0,0a2.35,2.35,0,0,0,0,.54l.09.77a2.35,2.35,0,0,0,.1.46l.11.34-.07.25,0,.13-.08.39-.12.2a2.35,2.35,0,0,0-.33,1.19v1.07l-.56.53a2.35,2.35,0,0,0-.32,3l.33.49a3,3,0,0,0-.06.39,3.12,3.12,0,0,0,.84,2.39,2.35,2.35,0,0,0,.64.92l1.13,1a2.35,2.35,0,0,0,.6.39l.5.22.17.31a2.35,2.35,0,0,0,1.47,1.13l0,.06a2.21,2.21,0,0,0,.79,2l1.35,1.18.92.78a2.35,2.35,0,0,0,.85.46,2.35,2.35,0,0,0,.57.54l1.61,1.07.36.4a2.35,2.35,0,0,0,.79.57l.91.4.58.34a2.35,2.35,0,0,0,.43.2l.4.14.22.12a2.35,2.35,0,0,0,.51.21L82,104a2.35,2.35,0,0,0,2.22-.52h.11a2.35,2.35,0,0,0,1-.29l.52-.29,1.25-.1a17.77,17.77,0,0,1,2.06.25l.21.12a2.35,2.35,0,0,0,2.07.13l4.19-1.74.49-.17,1.09-.05,1.58.06a2.35,2.35,0,0,0,.57,1l.81.84a2.35,2.35,0,0,0,.87.57,4.71,4.71,0,0,0,1.57.27,4.19,4.19,0,0,0,1.9-.44l.35-.05.1.08.07.05,0,0v0l0,.45a2.35,2.35,0,0,0-.48,2.39l-.39.8a2.35,2.35,0,0,0-.23,1.22l.08.92a2.35,2.35,0,0,0,.26.88l.21.41,0,.2a2.35,2.35,0,0,0,.77,1.44l1.63,1.45a2.35,2.35,0,0,0,.64,1.1l.79.76.56.67.09.11.13.59.15.88a2.35,2.35,0,0,0,.33.86l.53.84.07,2.19a2.35,2.35,0,0,0,.42,1.27,2.35,2.35,0,0,0,0,.52,1.38,1.38,0,0,1-.67,1.17,2.35,2.35,0,0,0-1.18,2V127a3.15,3.15,0,0,0-.75,1.44,2.35,2.35,0,0,0-.05.48v2l-.08,2.11a2.35,2.35,0,0,0,.35,1.32,53.07,53.07,0,0,1,2.81,5,2.35,2.35,0,0,0,.24.7,9.77,9.77,0,0,0,.86,1.39v0l.16,2.23a2.35,2.35,0,0,0,.19.77,7.66,7.66,0,0,1,.61,2.36,2.35,2.35,0,0,0,.35,1.24l1,1.69a2.35,2.35,0,0,0,.63.67l.16.12a7,7,0,0,0,1.2,2.66,3.58,3.58,0,0,0,.79,1.69,1.47,1.47,0,0,1,.06.29,2.35,2.35,0,0,0-.3,1.16v.77a2.35,2.35,0,0,0,.73,1.7l.59.56,0,.12a2.35,2.35,0,0,0,1.25,1.3l.34.15a2.68,2.68,0,0,0,2,.81,3.88,3.88,0,0,0,1.36-.27h.52a5.45,5.45,0,0,0,2.84-.66h.25a3.38,3.38,0,0,0,1.22-.23,4.28,4.28,0,0,0,.92.1,4.86,4.86,0,0,0,1.79-.35,12,12,0,0,1,1.57-.46h.22a2.35,2.35,0,0,0,1.41-.47,18.63,18.63,0,0,0,3.69-3.37l.6-.43a2.35,2.35,0,0,0,.79-1,8.4,8.4,0,0,1,.58-1.1,2.35,2.35,0,0,0,.55-.55,9.14,9.14,0,0,1,.81-1,2.35,2.35,0,0,0,1.1-1,8.19,8.19,0,0,0,.86-2.36,2.35,2.35,0,0,0,.34-.46l.48-.84a2.35,2.35,0,0,0,.28-1.5h.12a2.35,2.35,0,0,0,.5-.1,3.48,3.48,0,0,0,2.22-2.6,2.35,2.35,0,0,0,.45-1.16,12.14,12.14,0,0,0-.55-5.09,8.89,8.89,0,0,0,2.44-2.37,4.16,4.16,0,0,0,1.22-.65,6,6,0,0,0,3.77-3.25l.31-.38a2.35,2.35,0,0,0,.53-1.49v-1.3a2.35,2.35,0,0,0-.08-.6,11.28,11.28,0,0,1-.32-1.87,2.34,2.34,0,0,0,.56-1.52v-.69a2.35,2.35,0,0,0-.21-1l-.24-.54a2.35,2.35,0,0,0-.52-.74l-.4-.39-.15-.57a2.35,2.35,0,0,0-.17-.46,4.94,4.94,0,0,1-.2-.46,1.82,1.82,0,0,0,.22-.72,2.1,2.1,0,0,0-.63-1.81.83.83,0,0,1,.11-.77l.83-1.23a2.35,2.35,0,0,0,.25-.49l.1-.26a52.88,52.88,0,0,1,5.62-6.16,9.4,9.4,0,0,0,3.2-2c.34-.35.76-.73,1-.91a2.35,2.35,0,0,0,.7-.47,3.62,3.62,0,0,0,.74-1,7.27,7.27,0,0,0,1.33-2.19l.36-.54a4.22,4.22,0,0,0,.53-1l.87-1.18.52-.65a2.35,2.35,0,0,0,.41-.77l.18-.56.55-1a2.35,2.35,0,0,0,.26-.89l.17-2a2.35,2.35,0,0,0-.1-.91A3.15,3.15,0,0,0,167.49,89a4.23,4.23,0,0,0-1.12.16l-1.43.2a2.35,2.35,0,0,0-.58.16l-.85.35-.31,0-.21,0a2.35,2.35,0,0,0-1.46.13l-.74.32-.39,0a3.6,3.6,0,0,0-1.35.28,3.4,3.4,0,0,0-.72-2,2.35,2.35,0,0,0-.28-.32,30.11,30.11,0,0,0-3.11-2.77c-.66-.47-1.35-1-1.63-1.22l-.63-.78a6.12,6.12,0,0,0-2.18-3.77,4.93,4.93,0,0,1-.52-1,2.35,2.35,0,0,0,0-.57,5.56,5.56,0,0,0-.43-1.76l-.17-.75a2.35,2.35,0,0,0-.83-1.33l-1.19-1,0-.48a2.35,2.35,0,0,0-.52-1.36l-.79-1a11.5,11.5,0,0,0-.74-2,2.35,2.35,0,0,0,.59-1.33v-.13l.18-.22a2.35,2.35,0,0,0,.54-1.7l-.08-.92a2.35,2.35,0,0,0-.15-.65v-.3a2.35,2.35,0,0,0-.62-1.59,2.54,2.54,0,0,0-.45-.95,3.63,3.63,0,0,0-2.73-1.57h0a2.57,2.57,0,0,0-1.34.37l-.25-.09a2.35,2.35,0,0,0-.46-.12l-1-.15-.36,0h-1l-1,.08a2.35,2.35,0,0,0-1.5.7h-.08a3.34,3.34,0,0,1-1.44-.46,2.35,2.35,0,0,0-1-.26L132,59.16l-.42-.14-.1,0a3,3,0,0,0-1.68-.95l-.27,0-1.27-.11a8.45,8.45,0,0,0-4-1.4,3.72,3.72,0,0,0-.93.12,2.35,2.35,0,0,0-1.24.8,3.46,3.46,0,0,1-.41.41l-.16.06a3.31,3.31,0,0,0-1.75,1.77,2.84,2.84,0,0,0-.12.41,2.35,2.35,0,0,0-.55-.07,5.74,5.74,0,0,0-2-.63,1.1,1.1,0,0,1-.2-.27,2.35,2.35,0,0,0-.23-.43,4.62,4.62,0,0,0-3.8-1.88h-.42c-.57,0-1,0-1.25,0h0a2.35,2.35,0,0,0,.52-1.92l-.08-.45a2.35,2.35,0,0,0-.29-.79,2.34,2.34,0,0,0,.32-1.19v-.54A2.35,2.35,0,0,0,109,49.52l-.51-.34a2.35,2.35,0,0,0-1.3-.39ZM110,54.64h0Z"/><path class="cls-8" d="M156.59,139.09a8.92,8.92,0,0,1,.62,2.84s.12,2,1.69,2.33c0,0,3.45.83,3.45-1.22a9.39,9.39,0,0,0,.94-3.56s.28-1.74.82-2l.07-.46.2-.77.81-1.1-.07-2.2a2.66,2.66,0,0,0,.34-1.16s.74-1.8,1.22-2.06l-.68-3.95s-.94-.52-.94-.77a7.68,7.68,0,0,0-.33,1.09,1.24,1.24,0,0,0-.82.78s-.74-.19-.81.39v1s-.81.77-1,.9-1.34.58-1.42,1c0,0-2,.26-2.44.78,0,0-.82,1.42-.4,2a2.77,2.77,0,0,1,.4,1.95,1.11,1.11,0,0,1-.14,1.67Z"/><path class="cls-9" d="M165.05,125c0,.25.94.77.94.77l.68,3.95c-.47.26-1.22,2.06-1.22,2.06a2.66,2.66,0,0,1-.34,1.16l.07,2.2-.81,1.1-.2.77-.07.46c-.54.25-.82,2-.82,2a9.39,9.39,0,0,1-.94,3.56c0,1.13-1.06,1.39-2,1.39a7,7,0,0,1-1.45-.16c-1.56-.32-1.69-2.33-1.69-2.33a8.92,8.92,0,0,0-.62-2.84l1.49-2.59a1.11,1.11,0,0,0,.14-1.67,2.77,2.77,0,0,0-.4-1.95c-.42-.58.4-2,.4-2,.41-.52,2.44-.78,2.44-.78.07-.38,1.22-.84,1.42-1s1-.9,1-.9v-1a.48.48,0,0,1,.54-.42,1.16,1.16,0,0,1,.27,0,1.24,1.24,0,0,1,.82-.78,7.68,7.68,0,0,1,.33-1.09m0-2.35a2.35,2.35,0,0,0-2.2,1.53l-.14.38-.1.09a2.76,2.76,0,0,0-1.86,2.31q0,.11,0,.21a7.18,7.18,0,0,0-1.24.73c-2.27.44-2.9,1.23-3.12,1.5a2.35,2.35,0,0,0-.2.3c-.46.81-1.41,2.85-.32,4.46a.44.44,0,0,1,0,.23,2.35,2.35,0,0,0,.05,1.07l-1.4,2.45a2.35,2.35,0,0,0-.15,2,6.79,6.79,0,0,1,.46,1.86,2.38,2.38,0,0,0,0,.28,4.75,4.75,0,0,0,3.55,4.48,9.3,9.3,0,0,0,1.93.21c2.7,0,4.06-1.51,4.31-3.17a10.53,10.53,0,0,0,1-3.85,5.59,5.59,0,0,1,.16-.63,2.35,2.35,0,0,0,.65-1.3l0-.33.06-.21.54-.73a2.35,2.35,0,0,0,.46-1.48l-.05-1.65a4.91,4.91,0,0,0,.28-1.05,8.6,8.6,0,0,1,.45-.88,2.35,2.35,0,0,0,.78-2.18l-.68-3.95a2.35,2.35,0,0,0-1.19-1.66l-.2-.12a2.35,2.35,0,0,0-1.88-.94Z"/><path d="M12.21,174.7H14l6.75,15.87h-2.2l-1.61-3.9H9l-1.64,3.9H5.22Zm.85,2.42h0l-3.3,7.8H16.2Z"/><path d="M23.51,174.7h9.84v1.75h-8v5.24h7.4v1.75h-7.4v7.13H23.51Z"/><path d="M36.64,174.7H40.7a19.27,19.27,0,0,1,2.27.13,6.11,6.11,0,0,1,2,.58,3.67,3.67,0,0,1,1.46,1.31,4.26,4.26,0,0,1,.56,2.34A3.86,3.86,0,0,1,46,181.89a5,5,0,0,1-2.91,1.37l4.5,7.31H45.25l-4.3-7.13H38.53v7.13H36.64Zm1.88,7h1.68q.78,0,1.62,0a5.58,5.58,0,0,0,1.55-.29,2.7,2.7,0,0,0,1.17-.77,2.23,2.23,0,0,0,.46-1.51,2.46,2.46,0,0,0-.34-1.37,2.27,2.27,0,0,0-.88-.8,3.78,3.78,0,0,0-1.23-.37,10.61,10.61,0,0,0-1.38-.09H38.53Z"/><path d="M51,174.7h1.88v15.87H51Z"/><path d="M68.62,178a4.54,4.54,0,0,0-1.77-1.45,5.23,5.23,0,0,0-2.2-.48,5.5,5.5,0,0,0-2.43.54A6.1,6.1,0,0,0,60.31,178a6.64,6.64,0,0,0-1.25,2.11,7.06,7.06,0,0,0-.45,2.5,7.31,7.31,0,0,0,.45,2.59,6.45,6.45,0,0,0,1.24,2.08,5.83,5.83,0,0,0,1.9,1.4,6.15,6.15,0,0,0,5.05-.06,5.9,5.9,0,0,0,2-1.65l1.41,1.19a6.53,6.53,0,0,1-2.59,2.11,8.33,8.33,0,0,1-3.42.67,8.06,8.06,0,0,1-3.18-.63,7.82,7.82,0,0,1-2.57-1.74,8,8,0,0,1-1.7-2.63,9.32,9.32,0,0,1,0-6.61,7.88,7.88,0,0,1,7.47-5.06,8.45,8.45,0,0,1,3.1.58,5.72,5.72,0,0,1,2.5,1.9Z"/><path d="M79.11,174.7h1.77l6.75,15.87h-2.2l-1.61-3.9H75.89l-1.64,3.9H72.12Zm.85,2.42h0l-3.3,7.8H83.1Z"/><path d="M97.31,174.7H99.2v15.87H97.31Z"/><path d="M103.81,174.7h2.38l9.19,13.18h0V174.7h1.88v15.87h-2.38l-9.19-13.18h0v13.18h-1.88Z"/><path d="M119.75,174.7h2.13l4.89,13h0l5-13h2l-6.21,15.87h-1.82Z"/><path d="M136.29,174.7h10v1.75h-8.09v5h7.55v1.75h-7.55v5.65h8.49v1.75H136.29Z"/><path d="M157.78,177.5a2.78,2.78,0,0,0-1.25-1.11,4,4,0,0,0-1.64-.35,4.91,4.91,0,0,0-1.23.16,3.65,3.65,0,0,0-1.09.47,2.35,2.35,0,0,0-.77.83,2.42,2.42,0,0,0-.29,1.21,2.53,2.53,0,0,0,.17,1,2,2,0,0,0,.55.75,4.09,4.09,0,0,0,1,.63,14.1,14.1,0,0,0,1.59.58q.92.29,1.78.63a6,6,0,0,1,1.52.85,3.78,3.78,0,0,1,1.05,1.29,4.85,4.85,0,0,1-.08,4,4.31,4.31,0,0,1-1.24,1.45,5.39,5.39,0,0,1-1.78.85A7.75,7.75,0,0,1,154,191a8,8,0,0,1-1.39-.12,6.69,6.69,0,0,1-1.33-.38,5.38,5.38,0,0,1-1.2-.67,4,4,0,0,1-1-1l1.61-1.32a3.32,3.32,0,0,0,1.44,1.32,4.38,4.38,0,0,0,3.17.27,3.71,3.71,0,0,0,1.11-.53,2.88,2.88,0,0,0,.81-.86,2.23,2.23,0,0,0,.31-1.19,2.54,2.54,0,0,0-.25-1.2,2.19,2.19,0,0,0-.76-.8,5.88,5.88,0,0,0-1.3-.61l-1.84-.63a11.63,11.63,0,0,1-1.57-.62,4.81,4.81,0,0,1-1.24-.85,3.64,3.64,0,0,1-.83-1.21,4.28,4.28,0,0,1-.3-1.69,4.08,4.08,0,0,1,1.66-3.42,5.5,5.5,0,0,1,1.73-.86,7.31,7.31,0,0,1,4.47.12,4.81,4.81,0,0,1,2,1.45Z"/><path d="M174,176.45h-5.24v14.12H166.9V176.45h-5.24V174.7H174Z"/><path d="M176.92,174.7h2.8l5.38,12.44h0l5.42-12.44h2.73v15.87h-1.88V177.25h0l-5.69,13.31h-1.14l-5.69-13.31h0v13.31h-1.88Z"/><path d="M197.92,174.7h10v1.75H199.8v5h7.55v1.75H199.8v5.65h8.49v1.75H197.92Z"/><path d="M211.88,174.7h2.38l9.19,13.18h0V174.7h1.88v15.87H223l-9.19-13.18h0v13.18h-1.88Z"/><path d="M240.64,176.45h-5.24v14.12h-1.88V176.45h-5.24V174.7h12.37Z"/><path class="cls-2" d="M68.76,198.76h8.68a15.32,15.32,0,0,1,3.25.33,7.7,7.7,0,0,1,2.69,1.11,5.55,5.55,0,0,1,1.84,2.09,7.1,7.1,0,0,1,.68,3.28,6.58,6.58,0,0,1-1.24,4,5.57,5.57,0,0,1-3.61,2.11l5.7,9.48H80.84l-4.69-9H73.71v9H68.76ZM73.71,208h2.92q.67,0,1.41,0a4.42,4.42,0,0,0,1.35-.29,2.33,2.33,0,0,0,1-.74,2.26,2.26,0,0,0,.4-1.43,2.37,2.37,0,0,0-.35-1.36,2.32,2.32,0,0,0-.89-.78A4,4,0,0,0,78.3,203a10.16,10.16,0,0,0-1.36-.09H73.71Z"/><path class="cls-2" d="M90.19,198.76h4.94V221.2H90.19Z"/><path class="cls-2" d="M111.67,204.25a3.52,3.52,0,0,0-1.63-1.13,5.87,5.87,0,0,0-1.95-.36,5.12,5.12,0,0,0-1.11.13,4.29,4.29,0,0,0-1.08.4,2.35,2.35,0,0,0-.82.71,1.81,1.81,0,0,0-.32,1.08,1.78,1.78,0,0,0,.76,1.55,7.17,7.17,0,0,0,1.92.92q1.16.38,2.49.76a10.25,10.25,0,0,1,2.49,1.08,5.89,5.89,0,0,1,1.92,1.87,5.7,5.7,0,0,1,.76,3.14,7.23,7.23,0,0,1-.7,3.26,6.61,6.61,0,0,1-1.89,2.31,8,8,0,0,1-2.76,1.36,12.64,12.64,0,0,1-7.37-.22A10.16,10.16,0,0,1,98.9,219l3.52-3.87a5.12,5.12,0,0,0,1.92,1.57,5.4,5.4,0,0,0,3.61.41,4,4,0,0,0,1.11-.43,2.39,2.39,0,0,0,.79-.73,1.82,1.82,0,0,0,.3-1,1.9,1.9,0,0,0-.78-1.6,7.19,7.19,0,0,0-1.95-1q-1.17-.41-2.54-.82a11.38,11.38,0,0,1-2.54-1.11,6.1,6.1,0,0,1-1.95-1.84,5.25,5.25,0,0,1-.78-3,6.73,6.73,0,0,1,.71-3.17,6.88,6.88,0,0,1,1.9-2.28,8.26,8.26,0,0,1,2.74-1.38,11.23,11.23,0,0,1,3.2-.46,12.61,12.61,0,0,1,3.68.54,8.49,8.49,0,0,1,3.2,1.81Z"/><path class="cls-2" d="M119.66,198.76h4.94V221.2h-4.94Z"/><path class="cls-2" d="M130.05,198.76h6.72l9.54,15.59h.06V198.76h4.94V221.2h-6.47l-9.79-16H135v16h-4.94Z"/><path class="cls-2" d="M177.15,219.62a17.91,17.91,0,0,1-4.56,1.65,23.21,23.21,0,0,1-4.85.51,13.84,13.84,0,0,1-4.85-.82,11.1,11.1,0,0,1-3.84-2.36,10.69,10.69,0,0,1-2.52-3.72,13.62,13.62,0,0,1,0-9.76,10.7,10.7,0,0,1,2.52-3.72,11.12,11.12,0,0,1,3.84-2.36,13.82,13.82,0,0,1,4.85-.82,18,18,0,0,1,5,.65,9.73,9.73,0,0,1,4,2.23l-3.49,3.8a7,7,0,0,0-2.28-1.58,8.14,8.14,0,0,0-3.17-.54,7.34,7.34,0,0,0-2.87.54,6.43,6.43,0,0,0-2.2,1.51,6.6,6.6,0,0,0-1.41,2.3,8.76,8.76,0,0,0,0,5.78,6.63,6.63,0,0,0,1.41,2.28,6.42,6.42,0,0,0,2.2,1.51,7.33,7.33,0,0,0,2.87.54,9.47,9.47,0,0,0,2.79-.36,10.57,10.57,0,0,0,1.87-.75v-3.64h-4v-4.56h8.78Z"/><polygon class="cls-10" points="218.46 257.33 17.9 257.33 27.4 244.61 17.9 232 218.46 232 227.96 244.61 218.46 257.33"/><path class="cls-9" d="M45.3,238.5h4.77a8.14,8.14,0,0,1,1.76.18,3.64,3.64,0,0,1,1.39.61,2.53,2.53,0,0,1,.85,1.15,3.59,3.59,0,0,1,.12,1.8,4.21,4.21,0,0,1-1,2.22,3.61,3.61,0,0,1-2.14,1.16l2.4,5.21H50.22l-1.9-4.93H47l-.68,4.93H43.58Zm2,5.1h1.6l.77,0a2.68,2.68,0,0,0,.76-.16,1.58,1.58,0,0,0,.61-.41,1.4,1.4,0,0,0,.33-.78,1.18,1.18,0,0,0-.09-.75,1.07,1.07,0,0,0-.44-.43,2,2,0,0,0-.65-.2,5.24,5.24,0,0,0-.74-.05H47.69Z"/><path class="cls-9" d="M55.58,244.67a7.64,7.64,0,0,1,.88-2.68,7.16,7.16,0,0,1,4-3.34,8.19,8.19,0,0,1,2.73-.45,7,7,0,0,1,2.59.45,5,5,0,0,1,1.92,1.3,5,5,0,0,1,1.1,2,6.59,6.59,0,0,1,.12,2.68,7.76,7.76,0,0,1-.87,2.68,7.11,7.11,0,0,1-1.67,2,7.36,7.36,0,0,1-2.29,1.3,8.13,8.13,0,0,1-2.73.45,7.11,7.11,0,0,1-2.6-.45,5,5,0,0,1-1.92-1.3,4.94,4.94,0,0,1-1.1-2A6.57,6.57,0,0,1,55.58,244.67Zm2.82,0a4.25,4.25,0,0,0,.05,1.59,3.14,3.14,0,0,0,.6,1.25,2.87,2.87,0,0,0,1.09.83,3.71,3.71,0,0,0,1.53.3,4.36,4.36,0,0,0,1.62-.3,4.2,4.2,0,0,0,1.32-.83,4.54,4.54,0,0,0,.95-1.25,4.94,4.94,0,0,0,.5-1.59,4.35,4.35,0,0,0,0-1.58,3,3,0,0,0-.6-1.26,3,3,0,0,0-1.1-.83,3.71,3.71,0,0,0-1.53-.3,4.35,4.35,0,0,0-1.62.3,4.22,4.22,0,0,0-1.32.83,4.48,4.48,0,0,0-.95,1.26A5,5,0,0,0,58.4,244.67Z"/><path class="cls-9" d="M76.18,238.5h2.25l3.64,12.33H79l-.7-2.61H73.52l-1.39,2.61h-3Zm.54,3.59-2,3.83h3Z"/><path class="cls-9" d="M85.55,238.5h4.08a11.05,11.05,0,0,1,2.76.33,5.57,5.57,0,0,1,2.18,1.07,4.22,4.22,0,0,1,1.31,1.92A6.26,6.26,0,0,1,96,244.7a6.57,6.57,0,0,1-.93,2.64,7,7,0,0,1-1.78,1.92A7.92,7.92,0,0,1,91,250.43a9.17,9.17,0,0,1-2.69.4H83.82Zm1.34,9.82H88.3a7.9,7.9,0,0,0,1.78-.19,4.35,4.35,0,0,0,1.49-.64,3.7,3.7,0,0,0,1.09-1.17,4.78,4.78,0,0,0,.59-1.77,3.38,3.38,0,0,0-.11-1.58,2.48,2.48,0,0,0-.76-1.11,3.49,3.49,0,0,0-1.26-.65,5.62,5.62,0,0,0-1.59-.22h-1.6Z"/><path class="cls-9" d="M105,241.52a1.63,1.63,0,0,0-.82-.62,2.83,2.83,0,0,0-1.67-.13,2.49,2.49,0,0,0-.62.22,1.64,1.64,0,0,0-.5.39,1.15,1.15,0,0,0-.26.59.92.92,0,0,0,.15.69,1.52,1.52,0,0,0,.57.45,5.13,5.13,0,0,0,.87.32q.5.14,1,.31a7.78,7.78,0,0,1,1,.42,2.93,2.93,0,0,1,.83.62,2.3,2.3,0,0,1,.51.94,3.19,3.19,0,0,1,0,1.37,4.33,4.33,0,0,1-.64,1.79,4.55,4.55,0,0,1-1.22,1.27,5.15,5.15,0,0,1-1.62.75,7,7,0,0,1-1.85.24,6.15,6.15,0,0,1-2.18-.37,4.7,4.7,0,0,1-1.76-1.18L99,247.47a2.39,2.39,0,0,0,.93.86,2.69,2.69,0,0,0,1.26.3,3.07,3.07,0,0,0,.68-.08,2.58,2.58,0,0,0,.64-.23,1.62,1.62,0,0,0,.5-.4,1.18,1.18,0,0,0,.25-.58.88.88,0,0,0-.3-.88,3.48,3.48,0,0,0-1-.55q-.61-.23-1.32-.45a5.36,5.36,0,0,1-1.31-.61,2.73,2.73,0,0,1-.93-1,2.68,2.68,0,0,1-.2-1.65,4.15,4.15,0,0,1,.64-1.74,4.59,4.59,0,0,1,1.23-1.25,5.45,5.45,0,0,1,1.62-.76,6.61,6.61,0,0,1,3.77,0,3.85,3.85,0,0,1,1.61,1Z"/><path class="cls-9" d="M109.8,238.5h2.72l-.64,4.6h5.28l.64-4.6h2.72l-1.72,12.33h-2.72l.75-5.33h-5.28l-.75,5.33h-2.72Z"/><path class="cls-9" d="M122,244.67a7.64,7.64,0,0,1,.88-2.68,7.16,7.16,0,0,1,4-3.34,8.19,8.19,0,0,1,2.73-.45,7,7,0,0,1,2.59.45,5,5,0,0,1,1.92,1.3,5,5,0,0,1,1.1,2,6.59,6.59,0,0,1,.12,2.68,7.76,7.76,0,0,1-.87,2.68,7.11,7.11,0,0,1-1.67,2,7.36,7.36,0,0,1-2.29,1.3,8.13,8.13,0,0,1-2.73.45,7.11,7.11,0,0,1-2.6-.45,5,5,0,0,1-1.92-1.3,4.94,4.94,0,0,1-1.1-2A6.57,6.57,0,0,1,122,244.67Zm2.82,0a4.25,4.25,0,0,0,.05,1.59,3.14,3.14,0,0,0,.6,1.25,2.87,2.87,0,0,0,1.09.83,3.71,3.71,0,0,0,1.53.3,4.36,4.36,0,0,0,1.62-.3,4.2,4.2,0,0,0,1.32-.83,4.54,4.54,0,0,0,.95-1.25,4.94,4.94,0,0,0,.5-1.59,4.35,4.35,0,0,0,0-1.58,3,3,0,0,0-.6-1.26,3,3,0,0,0-1.1-.83,3.71,3.71,0,0,0-1.53-.3,4.35,4.35,0,0,0-1.62.3,4.22,4.22,0,0,0-1.32.83,4.48,4.48,0,0,0-.95,1.26A5,5,0,0,0,124.83,244.67Z"/><path class="cls-9" d="M137.27,238.5h3l.85,7.91h0l3.69-7.91h2.52l1.43,8.11h0l3.2-8.11h2.75l-5.33,12.33H147l-1.53-8.53h0l-3.9,8.53H139.2Z"/><path class="cls-9" d="M160.43,248.06l5.4-4.3.43-.36a3.5,3.5,0,0,0,.4-.39,2.75,2.75,0,0,0,.32-.45,1.39,1.39,0,0,0,.17-.52,1,1,0,0,0-.31-1,1.46,1.46,0,0,0-1-.36,1.66,1.66,0,0,0-1.2.45,2.12,2.12,0,0,0-.61,1.11l-2.59-.19a4.79,4.79,0,0,1,.64-1.66,4.4,4.4,0,0,1,1.09-1.17,4.51,4.51,0,0,1,1.45-.7,6.14,6.14,0,0,1,1.72-.23,4.78,4.78,0,0,1,1.53.23,3,3,0,0,1,1.17.7,2.65,2.65,0,0,1,.68,1.16,3.85,3.85,0,0,1,.09,1.62,4.28,4.28,0,0,1-.73,1.94,6.71,6.71,0,0,1-1.36,1.37l-4.2,3.22H169l-.31,2.3H160Z"/><path class="cls-9" d="M171.45,244.67a13.41,13.41,0,0,1,.52-2.23,7.71,7.71,0,0,1,1-2.05,5.26,5.26,0,0,1,1.61-1.51,4.46,4.46,0,0,1,2.34-.58,3.63,3.63,0,0,1,2.18.58,3.49,3.49,0,0,1,1.18,1.51,5.91,5.91,0,0,1,.43,2.05,12.36,12.36,0,0,1-.11,2.23,14,14,0,0,1-.51,2.23,7.46,7.46,0,0,1-1,2.05,5.25,5.25,0,0,1-1.61,1.51,4.46,4.46,0,0,1-2.34.58,3.63,3.63,0,0,1-2.18-.58,3.54,3.54,0,0,1-1.19-1.51,5.76,5.76,0,0,1-.44-2.05A12.33,12.33,0,0,1,171.45,244.67Zm2.61,0q-.07.49-.12,1.17a5.41,5.41,0,0,0,.05,1.31,2.36,2.36,0,0,0,.44,1.06,1.23,1.23,0,0,0,1,.44,1.62,1.62,0,0,0,1.16-.44,3.26,3.26,0,0,0,.74-1.06,6.34,6.34,0,0,0,.42-1.31q.14-.68.21-1.17c0-.33.09-.71.12-1.17a5.41,5.41,0,0,0-.05-1.31,2.31,2.31,0,0,0-.44-1.06,1.23,1.23,0,0,0-1-.44,1.61,1.61,0,0,0-1.17.44,3.33,3.33,0,0,0-.73,1.06,6.3,6.3,0,0,0-.42,1.31C174.18,244,174.11,244.34,174.06,244.67Z"/><path class="cls-9" d="M187.17,241.43l-2.77,2.18-1.24-1.71,4.49-3.4h2.44l-1.72,12.33h-2.51Z"/><path class="cls-9" d="M194,241.69a3.62,3.62,0,0,1,.54-1.49,3.8,3.8,0,0,1,1-1.06,4.59,4.59,0,0,1,1.4-.64,6.24,6.24,0,0,1,1.63-.21,5.66,5.66,0,0,1,1.58.21,3.21,3.21,0,0,1,1.22.64,2.54,2.54,0,0,1,.73,1.06,3,3,0,0,1,.11,1.49,3.15,3.15,0,0,1-.78,1.73,3.5,3.5,0,0,1-1.69,1v0a2.52,2.52,0,0,1,1.56,1.07,2.84,2.84,0,0,1,.32,1.92,3.69,3.69,0,0,1-.57,1.57,4,4,0,0,1-1.11,1.12,5.05,5.05,0,0,1-1.48.67,6.28,6.28,0,0,1-1.67.23,5.63,5.63,0,0,1-1.61-.23,3.58,3.58,0,0,1-1.29-.67,2.7,2.7,0,0,1-.79-1.12,3.14,3.14,0,0,1-.14-1.57,3.48,3.48,0,0,1,.86-1.92,3.68,3.68,0,0,1,1.85-1.07v0a2.41,2.41,0,0,1-1.4-1A2.52,2.52,0,0,1,194,241.69Zm1.65,5.4a1.31,1.31,0,0,0,.31,1.1,1.5,1.5,0,0,0,1.18.45,2,2,0,0,0,1.31-.45,1.68,1.68,0,0,0,.64-1.1,1.33,1.33,0,0,0-.32-1.11,1.53,1.53,0,0,0-1.19-.45,2,2,0,0,0-1.31.45A1.72,1.72,0,0,0,195.64,247.09Zm.91-5a1.12,1.12,0,0,0,.28,1,1.34,1.34,0,0,0,1,.4A1.71,1.71,0,0,0,199,243a1.56,1.56,0,0,0,.56-1,1.1,1.1,0,0,0-.28-1,1.35,1.35,0,0,0-1-.4,1.72,1.72,0,0,0-1.15.4A1.55,1.55,0,0,0,196.54,242.06Z"/></g></g></svg>